<svg width="48" height="48" viewBox="0 0 48 48" fill="none" xmlns="http://www.w3.org/2000/svg">
<rect width="48" height="48" rx="12" fill="#93C5FD"/>
<path d="M28.5 25.125C29.1213 25.125 29.625 24.6213 29.625 24C29.625 23.3787 29.1213 22.875 28.5 22.875C27.8787 22.875 27.375 23.3787 27.375 24C27.375 24.6213 27.8787 25.125 28.5 25.125Z" fill="#1E293B"/>
<path d="M19.5 25.125C20.1213 25.125 20.625 24.6213 20.625 24C20.625 23.3787 20.1213 22.875 19.5 22.875C18.8787 22.875 18.375 23.3787 18.375 24C18.375 24.6213 18.8787 25.125 19.5 25.125Z" fill="#1E293B"/>
<path d="M24 25.125C24.6213 25.125 25.125 24.6213 25.125 24C25.125 23.3787 24.6213 22.875 24 22.875C23.3787 22.875 22.875 23.3787 22.875 24C22.875 24.6213 23.3787 25.125 24 25.125Z" fill="#1E293B"/>
<path d="M16.256 28.5938C15.1393 26.7098 14.7487 24.483 15.1576 22.3315C15.5664 20.1799 16.7464 18.2515 18.4763 16.9084C20.2061 15.5652 22.3667 14.8997 24.5525 15.0367C26.7383 15.1736 28.7989 16.1037 30.3475 17.6523C31.8961 19.201 32.8262 21.2616 32.9632 23.4473C33.1002 25.6331 32.4346 27.7937 31.0915 29.5236C29.7483 31.2534 27.8199 32.4335 25.6684 32.8423C23.5168 33.2511 21.29 32.8605 19.406 31.7438V31.7438L16.2935 32.6251C16.166 32.6624 16.0308 32.6647 15.9021 32.6317C15.7733 32.5988 15.6559 32.5319 15.5619 32.4379C15.468 32.344 15.401 32.2265 15.3681 32.0978C15.3352 31.969 15.3375 31.8338 15.3748 31.7063L16.256 28.5938Z" stroke="#1E293B" stroke-width="2" stroke-linecap="round" stroke-linejoin="round"/>
</svg>
