<svg width="24" height="16" viewBox="0 0 24 16" fill="none" xmlns="http://www.w3.org/2000/svg">
<path d="M8.25 11C10.9424 11 13.125 8.81739 13.125 6.125C13.125 3.43261 10.9424 1.25 8.25 1.25C5.55761 1.25 3.375 3.43261 3.375 6.125C3.375 8.81739 5.55761 11 8.25 11Z" stroke="white" stroke-width="2" stroke-miterlimit="10"/>
<path d="M14.5688 1.42813C14.9998 1.31124 15.4442 1.25136 15.8907 1.25C17.1837 1.25 18.4236 1.76361 19.3379 2.67785C20.2521 3.59209 20.7657 4.83207 20.7657 6.125C20.7657 7.41793 20.2521 8.65791 19.3379 9.57214C18.4236 10.4864 17.1837 11 15.8907 11" stroke="white" stroke-width="2" stroke-linecap="round" stroke-linejoin="round"/>
<path d="M1.5 14.5063C2.2612 13.4231 3.27191 12.539 4.44676 11.9287C5.6216 11.3184 6.92608 10.9998 8.25 10.9998C9.57392 10.9998 10.8784 11.3184 12.0532 11.9287C13.2281 12.539 14.2388 13.4231 15 14.5063" stroke="white" stroke-width="2" stroke-linecap="round" stroke-linejoin="round"/>
<path d="M15.8906 11C17.2147 10.9992 18.5194 11.3174 19.6944 11.9277C20.8693 12.5381 21.8799 13.4225 22.6406 14.5063" stroke="white" stroke-width="2" stroke-linecap="round" stroke-linejoin="round"/>
</svg>
