<svg width="315" height="364" viewBox="0 0 315 364" fill="none" xmlns="http://www.w3.org/2000/svg">
<rect width="287" height="287" fill="#0F172A"/>
<path fill-rule="evenodd" clip-rule="evenodd" d="M136.462 214.41C101.061 206.662 53.8943 191.287 61.6451 138.532C69.396 85.7768 102.622 65.4358 143.727 65.4358C184.832 65.4358 231.533 96.4475 222.365 160.691C213.197 224.935 171.862 222.158 136.462 214.41ZM252.82 150.817C254.282 136.138 252.729 121.613 248.557 107.998L260.46 101.621C262.467 100.547 263.221 98.0502 262.149 96.0443L245.897 65.703C244.821 63.6971 242.324 62.9422 240.317 64.0165L228.414 70.3931C219.389 59.3779 208.159 50.0373 195.132 43.12L199.037 30.1995C199.697 28.0214 198.465 25.7222 196.286 25.0638L163.339 15.1012C161.16 14.4428 158.862 15.6744 158.203 17.8525L154.298 30.773C139.616 29.3116 128.92 34.6914 115.304 38.8611L108.927 26.957C107.854 24.9511 105.356 24.1963 103.351 25.2706L73.0095 41.5233C71.0037 42.5977 70.2488 45.0945 71.3231 47.1L77.6996 59.0044C66.6845 68.0283 53.5172 75.432 46.6 88.4615L33.6791 84.5547C31.5014 83.8963 29.2018 85.1279 28.5434 87.3057L18.5812 120.253C17.9227 122.431 19.1544 124.73 21.3321 125.389L34.253 129.296C32.7916 143.975 34.3447 158.499 38.5144 172.115L26.6103 178.491C24.6045 179.566 23.8496 182.063 24.9239 184.068L41.1766 214.41C42.2509 216.415 44.7477 217.171 46.7532 216.096L58.6576 209.719C67.6815 220.735 78.9119 230.075 91.9414 236.993L88.0346 249.913C87.3762 252.091 88.6078 254.391 90.7855 255.049L123.733 265.01C125.909 265.67 128.21 264.438 128.87 262.259L132.774 249.34C147.453 250.801 161.979 249.248 175.595 245.078L181.97 256.982C183.046 258.988 185.543 259.741 187.549 258.669L217.891 242.416C219.894 241.342 220.652 238.845 219.576 236.839L213.197 224.935C224.215 215.911 233.553 204.68 240.473 191.651L253.392 195.558C255.571 196.216 257.872 194.985 258.528 192.807L268.49 159.86C269.15 157.682 267.918 155.382 265.739 154.724L252.82 150.817Z" fill="#5B96F7"/>
<path fill-rule="evenodd" clip-rule="evenodd" d="M189.073 76.7438L187.926 76.7051L187.893 77.7245C187.839 79.5586 187.864 81.5207 187.891 83.66C187.91 85.1509 187.93 86.7279 187.926 88.4075L187.735 91.7243C187.74 94.8144 187.762 99.1153 187.8 104.627L187.925 120.318C187.082 120.598 186.448 121.326 186.321 122.212C185.625 122.318 185.091 122.908 185.091 123.619C185.091 124.122 185.359 124.565 185.762 124.818L185.271 126.005C185.053 126.532 184.694 126.982 184.231 127.308C182.203 128.734 181.01 131.044 181.038 133.488C181.038 133.553 181.04 133.617 181.043 133.682C181.051 133.916 181.252 134.097 181.492 134.09C181.731 134.082 181.917 133.885 181.909 133.65C181.906 133.593 181.905 133.536 181.904 133.478C181.879 131.311 183.321 129.262 185.119 127.997C185.715 127.578 186.178 126.999 186.457 126.324L186.604 125.044H187.22C187.22 125.044 187.434 126.196 187.434 127.096C187.434 127.997 187.22 129.78 187.22 129.78H186.51C185.697 129.78 185.035 130.429 185.035 131.225C185.035 132.022 185.697 132.67 186.51 132.67H186.612C187.425 132.67 187.704 132.254 187.704 131.225C187.704 130.687 187.763 130.302 188.642 130.302C189.521 130.302 189.295 131.225 189.295 131.225C189.295 132.022 189.956 132.67 190.77 132.67H190.871C191.685 132.67 192.346 132.022 192.346 131.225C192.346 130.429 190.974 129.755 190.161 129.755C190.161 129.755 189.945 128.134 189.945 127.308C189.945 126.612 190.161 125.188 190.161 125.188H189.295C189.295 125.188 189.475 126.517 189.475 127.328C189.475 128.138 189.295 129.755 189.295 129.755C189.295 129.755 188.817 129.841 188.589 129.846C188.361 129.851 188.087 129.78 188.087 129.78C188.087 129.78 187.897 128.123 187.897 127.328C187.897 126.532 188.087 125.044 188.087 125.044H189.295H190.161H190.777L191.307 126.323C191.572 126.966 192.369 127.53 192.975 127.96L193.052 128.015C194.81 129.263 195.477 131.277 195.477 133.401C195.477 135.195 194.759 136.877 193.454 138.136C192.15 139.395 190.423 140.457 188.589 140.431C187.135 140.41 185.649 139.609 184.487 138.741C183.361 137.9 181.904 135.6 181.662 135.069C181.419 134.539 181.305 135.376 181.376 135.6C181.842 137.08 182.797 138.417 184.065 139.364C185.376 140.343 186.936 140.873 188.576 140.897C190.644 140.926 192.592 140.161 194.062 138.741C195.534 137.32 196.344 135.424 196.344 133.401C196.344 131.006 195.16 128.735 193.178 127.328C192.695 126.985 192.326 126.527 192.11 126.005L191.619 124.818C192.022 124.565 192.29 124.122 192.29 123.619C192.29 122.908 191.756 122.318 191.06 122.212C190.917 121.213 190.13 120.415 189.124 120.234L189.068 120.234L188.404 105.642C188.364 100.088 188.883 88.9874 188.883 88.9874C188.893 84.7185 188.945 80.9757 189.041 77.7595L189.073 76.7438ZM190.77 131.821C190.434 131.821 190.161 131.554 190.161 131.225V130.302C190.161 130.302 191.48 130.566 191.48 131.225C191.48 131.83 191.25 131.827 190.953 131.822L190.952 131.822C190.926 131.822 190.899 131.821 190.871 131.821H190.77ZM185.57 131.225C185.626 132.055 187.347 132.417 187.22 131.225V130.302C187.22 130.302 185.514 130.395 185.57 131.225ZM187.205 122.195C187.364 121.535 187.97 121.043 188.691 121.043C189.412 121.043 190.017 121.535 190.177 122.195H187.205ZM190.836 123.043H190.651H186.73H186.545C186.221 123.043 185.958 123.302 185.958 123.619C185.958 123.937 186.221 124.195 186.545 124.195H190.836C191.16 124.195 191.424 123.937 191.424 123.619C191.424 123.302 191.16 123.043 190.836 123.043ZM198.261 126.739H199.019C199.232 126.739 199.405 126.568 199.405 126.356C199.405 126.145 199.232 125.974 199.019 125.974H198.261C198.048 125.974 197.875 126.145 197.875 126.356C197.875 126.568 198.048 126.739 198.261 126.739ZM197.659 129.448L198.388 129.755C198.594 129.841 198.693 130.086 198.611 130.302C198.529 130.517 198.295 130.622 198.09 130.535L197.361 130.229C197.156 130.142 197.056 129.897 197.138 129.682C197.201 129.517 197.351 129.418 197.51 129.418C197.56 129.418 197.611 129.427 197.659 129.448ZM197.009 123.208L197.692 122.66C197.884 122.505 197.932 122.199 197.799 121.976C197.717 121.838 197.585 121.764 197.45 121.764C197.367 121.764 197.283 121.793 197.209 121.852L196.527 122.399C196.334 122.554 196.286 122.86 196.419 123.083C196.552 123.306 196.817 123.362 197.009 123.208ZM178.737 126.739H177.98C177.766 126.739 177.593 126.568 177.593 126.356C177.593 126.145 177.766 125.974 177.98 125.974H178.737C178.951 125.974 179.124 126.145 179.124 126.356C179.124 126.568 178.951 126.739 178.737 126.739ZM179.339 129.448L178.61 129.755C178.405 129.841 178.305 130.086 178.388 130.302C178.47 130.517 178.703 130.622 178.909 130.535L179.638 130.229C179.843 130.142 179.943 129.897 179.86 129.682C179.798 129.518 179.647 129.418 179.488 129.418C179.438 129.418 179.388 129.427 179.339 129.448ZM179.989 123.208L179.307 122.66C179.114 122.505 179.066 122.199 179.199 121.976C179.282 121.838 179.414 121.764 179.548 121.764C179.631 121.764 179.715 121.793 179.789 121.852L180.472 122.399C180.664 122.554 180.712 122.86 180.579 123.083C180.446 123.306 180.182 123.362 179.989 123.208Z" fill="#FFB61D"/>
<path d="M132.542 183.596C136.763 184.707 138.929 187.351 140.758 189.814C142.591 192.276 138.561 191.104 136.338 190.215C134.115 189.327 128.761 186.04 128.761 186.04L111.013 180.672V172.463L116.321 172.153C116.321 172.153 128.317 182.485 132.542 183.596Z" fill="white"/>
<path d="M114.151 123.475C117.948 137.842 119.907 151.588 120.217 164.775C120.217 164.775 123.772 165.22 123.328 168.33C122.884 171.441 113.551 179.884 113.551 179.884L110.317 169.166L109.108 129.67L114.151 123.475Z" fill="white"/>
<path fill-rule="evenodd" clip-rule="evenodd" d="M115.446 130.828L113.267 129.382C113.127 129.289 112.944 129.361 112.894 129.527L112.134 132.052C112.07 132.262 112.259 132.459 112.455 132.387L115.395 131.309C115.596 131.235 115.626 130.947 115.446 130.828ZM115.182 131.245L112.504 132.02L113.301 129.724L115.182 131.245Z" fill="#FFB61D"/>
<path fill-rule="evenodd" clip-rule="evenodd" d="M114.49 149.004L112.31 147.559C112.171 147.466 111.987 147.538 111.937 147.704L111.177 150.229C111.114 150.439 111.303 150.636 111.499 150.564L114.439 149.485C114.639 149.412 114.67 149.124 114.49 149.004ZM114.226 149.422L111.547 150.196L112.345 147.9L114.226 149.422Z" fill="#FFB61D"/>
<path fill-rule="evenodd" clip-rule="evenodd" d="M113.344 159.216L113.506 156.606C113.516 156.439 113.362 156.316 113.193 156.355L110.627 156.959C110.413 157.01 110.337 157.272 110.497 157.406L112.902 159.412C113.065 159.549 113.33 159.432 113.344 159.216ZM112.85 159.196L110.84 157.264L113.227 156.806L112.85 159.196Z" fill="#FFB61D"/>
<path fill-rule="evenodd" clip-rule="evenodd" d="M117.475 157.29L114.865 157.128C114.698 157.118 114.575 157.272 114.614 157.441L115.218 160.007C115.269 160.221 115.531 160.297 115.665 160.136L117.671 157.732C117.808 157.568 117.691 157.304 117.475 157.29ZM117.455 157.784L115.523 159.794L115.065 157.407L117.455 157.784Z" fill="#FFB61D"/>
<path fill-rule="evenodd" clip-rule="evenodd" d="M115.46 170.598L113.118 171.763C112.968 171.838 112.938 172.032 113.057 172.159L114.863 174.079C115.014 174.239 115.279 174.174 115.315 173.968L115.851 170.883C115.887 170.673 115.653 170.502 115.46 170.598ZM115.689 171.036L115.021 173.743L113.431 171.904L115.689 171.036Z" fill="#FFB61D"/>
<path fill-rule="evenodd" clip-rule="evenodd" d="M116.608 163.328L114.266 164.493C114.116 164.567 114.087 164.762 114.206 164.888L116.012 166.809C116.162 166.969 116.428 166.904 116.463 166.698L116.999 163.613C117.036 163.402 116.801 163.232 116.608 163.328ZM116.837 163.765L116.169 166.472L114.579 164.634L116.837 163.765Z" fill="#FFB61D"/>
<path d="M101.425 132.114L98.8498 139.889C92.9633 157.694 90.0647 166.731 89.9776 167.578C89.9235 168.105 90.2427 168.498 90.7349 168.632C91.0307 168.712 91.3924 168.708 91.8417 168.641C92.5407 168.538 93.4753 168.275 94.6037 167.886C95.476 167.584 96.4186 167.223 97.3734 166.832L97.7751 166.666C97.9056 166.612 98.0325 166.558 98.1554 166.506L98.7934 166.231L98.9756 166.151L99.0815 165.982C99.2696 165.683 99.5376 165.153 99.8019 164.427C100.034 163.789 100.219 163.106 100.341 162.384L100.384 162.112C100.422 161.846 100.785 161.233 101.536 160.185L102.059 159.47C102.488 158.891 103.313 157.787 103.396 157.675L103.882 157.018C104.345 156.385 104.75 155.821 105.146 155.251C107.13 152.394 108.532 149.894 109.359 147.488C110.061 145.446 110.307 143.555 110.029 141.817C109.604 139.163 109.767 136.627 110.388 134.247C110.904 132.269 109.272 130.445 106.919 129.774C104.487 129.081 102.171 129.866 101.425 132.114Z" fill="white"/>
<path d="M105.735 120.617C107.169 122.14 108.373 123.301 109.345 124.1C110.983 125.447 113.332 126.89 116.391 128.43C107.035 130.596 101.322 131.025 99.2516 129.715C99.2516 129.715 100.114 125.658 101.353 123.919C102.275 122.625 105.735 120.617 105.735 120.617Z" fill="white"/>
<path d="M120.618 101.059C118.674 108.442 113.362 116.15 107.707 114.662C102.051 113.173 98.9206 103.081 100.865 95.6983C102.808 88.3151 108.969 83.5368 114.625 85.0253C120.281 86.5139 122.562 93.6763 120.618 101.059Z" fill="white"/>
<path d="M121.912 103.414C119.712 111.863 113.701 120.684 107.3 118.981C100.9 117.277 97.3574 105.728 99.5573 97.2788C101.757 88.8294 108.73 83.361 115.13 85.0646C121.531 86.7681 124.112 94.9648 121.912 103.414Z" fill="white"/>
<path fill-rule="evenodd" clip-rule="evenodd" d="M111.697 86.0364C116.059 86.2841 119.242 87.717 121.026 90.2419L121.228 90.5339C122.11 91.8075 122.852 92.609 123.177 95.0196L123.208 95.2759C123.393 96.8617 123.448 98.5346 123.352 99.0898C123.301 99.3243 123.2 99.4062 123.073 99.3814C122.785 99.325 122.039 97.9984 120.834 95.4016L119.823 96.585C119.273 97.2206 118.106 97.8197 117.414 98.27C116.723 98.7203 111.697 86.0364 111.697 86.0364Z" fill="#E7EAEE"/>
<path fill-rule="evenodd" clip-rule="evenodd" d="M116.101 110.02C118.529 111.033 120.374 112.349 120.863 111.802C121.353 111.255 119.684 109.589 118.388 107.326C117.031 105.075 115.742 102.241 115.501 101.087L114.884 98.1724C113.08 100.45 111.39 108.091 116.101 110.02Z" fill="white"/>
<path d="M144.337 249.163L144.206 257.268H139.595L138.214 247.968L144.337 249.163Z" fill="white"/>
<path d="M93.845 206.061C93.845 206.061 123.759 205.401 133.163 204.044C143.602 202.539 149.311 198.98 151.581 199.401C152.645 199.598 158.924 200.71 172.026 202.104C177.567 202.693 191.951 202.784 191.951 202.784L197.534 190.901C197.534 190.901 158.248 183.014 145.827 186.428C141.92 187.502 133.46 189.051 123.401 188.485C114.702 187.996 91.045 183.401 91.045 183.401C91.045 183.401 81.4933 186.83 83.2222 195.262C84.9512 203.694 93.845 206.061 93.845 206.061Z" fill="white"/>
<path fill-rule="evenodd" clip-rule="evenodd" d="M194.334 195.985L196.173 190.66C196.173 190.66 156.953 183.345 144.532 186.759C140.625 187.832 137.094 189.603 127.035 189.037C123.184 188.82 116.6 187.919 107.283 186.333C102.57 185.531 101.813 185.828 105.517 188.25C114.107 193.868 133.215 192.544 150.552 190.013C182.773 185.308 194.334 195.985 194.334 195.985Z" fill="#E7EAEE"/>
<path d="M139.133 251.003C137.181 253.159 134.594 256.71 135.926 260.265L159.035 267.375C159.035 267.375 159.923 264.708 158.591 262.489C157.256 260.265 144.647 251.494 144.647 251.494L139.133 251.003Z" fill="white"/>
<path fill-rule="evenodd" clip-rule="evenodd" d="M149.799 255.819C149.952 255.777 150.11 255.868 150.151 256.021C150.193 256.174 150.102 256.331 149.949 256.373C149.197 256.577 148.701 257.052 148.526 257.655C148.301 258.433 148.276 259.229 148.532 260.504C148.563 260.659 148.463 260.811 148.307 260.842C148.152 260.873 148 260.772 147.969 260.617C147.696 259.254 147.723 258.364 147.975 257.495C148.206 256.698 148.856 256.075 149.799 255.819Z" fill="#E7EAEE"/>
<path fill-rule="evenodd" clip-rule="evenodd" d="M137.074 260.648L159.809 267.338C159.809 267.338 162.696 266.731 159.711 266.306C156.643 265.871 138.684 257.646 136.708 259.144C136.427 259.358 136.9 260.184 137.074 260.648Z" fill="#E7EAEE"/>
<path d="M80.4252 204.365C80.4252 204.365 90.6839 207.603 98.9449 208.817C107.206 210.031 123.684 210.722 123.684 210.722C123.684 210.722 128.828 213.518 129.16 214.813C129.289 215.318 130.069 221.983 132.224 230.499C133.238 234.504 138.656 252.618 138.656 252.618L145.827 249.443C145.827 249.443 145.539 216.151 140.962 205.108C136.384 194.066 89.3304 183.341 89.3304 183.341C89.3304 183.341 79.344 181.535 76.6253 189.701C73.9067 197.868 80.4252 204.365 80.4252 204.365Z" fill="white"/>
<path fill-rule="evenodd" clip-rule="evenodd" d="M139.804 251.47L146.975 248.296C146.783 226.1 145.161 211.322 142.11 203.96C142.11 203.96 145.228 243.15 139.804 251.47Z" fill="#E7EAEE"/>
<path d="M202.337 196.422C204.121 198.719 207.169 201.883 210.902 201.189L221.916 179.665C221.916 179.665 219.082 178.411 216.665 179.337C214.244 180.267 203.597 191.378 203.597 191.378L202.337 196.422Z" fill="white"/>
<path fill-rule="evenodd" clip-rule="evenodd" d="M154.494 259.641C154.608 259.531 154.79 259.535 154.9 259.649C155.009 259.764 155.005 259.946 154.891 260.055C154.224 260.694 154.1 261.765 154.483 262.411C154.564 262.548 154.519 262.724 154.382 262.804C154.246 262.885 154.07 262.84 153.989 262.704C153.473 261.832 153.631 260.468 154.494 259.641Z" fill="#E7EAEE"/>
<path fill-rule="evenodd" clip-rule="evenodd" d="M152.149 257.748C152.265 257.64 152.447 257.645 152.555 257.761C152.664 257.876 152.658 258.058 152.542 258.167L152.387 258.316C151.18 259.503 150.834 260.542 151.897 261.656C152.006 261.771 152.002 261.952 151.887 262.062C151.773 262.171 151.591 262.167 151.482 262.052C150.696 261.229 150.535 260.34 150.883 259.45C151.123 258.836 151.541 258.32 152.149 257.748Z" fill="#E7EAEE"/>
<path fill-rule="evenodd" clip-rule="evenodd" d="M141.103 257.372C141.762 258.632 145.26 258.115 144.651 254.632C144.363 252.984 139.279 253.885 141.103 257.372Z" fill="#E7EAEE"/>
<path fill-rule="evenodd" clip-rule="evenodd" d="M208.718 201.589C213.34 196.307 215.996 184.428 219.803 180.341C221.146 178.898 222.889 178.574 221.013 181.99C217.581 188.239 210.985 201.589 210.985 201.589C210.636 201.764 210.204 201.589 209.814 201.589H208.718Z" fill="#E7EAEE"/>
<path d="M132.542 183.596C136.763 184.707 138.929 187.351 140.758 189.814C142.591 192.276 138.561 191.104 136.338 190.215C134.115 189.327 129.862 185.954 129.862 185.954L132.542 183.596Z" fill="white"/>
<path d="M94.0955 173.598C94.0955 173.598 117.855 183.805 121.204 183.818C124.548 183.832 132.756 187.818 133.2 190.928C133.74 194.713 119.424 189.151 119.424 189.151C119.424 189.151 87.4294 189.151 82.0989 183.818C76.7649 178.486 80.3195 167.377 80.3195 167.377L94.0955 173.598Z" fill="white"/>
<path d="M88.3172 126.051C88.3172 126.051 94.0954 129.605 94.9832 141.159C95.871 152.712 92.316 166.488 92.316 166.488C92.316 166.488 94.5393 168.266 94.9832 170.043C95.4271 171.821 94.0763 174.167 94.0763 174.167C94.0763 174.167 80.7641 180.708 79.8752 181.152C78.9866 181.597 75.4316 180.263 75.4316 176.708C75.4316 173.154 76.7649 170.043 76.7649 170.043C77.4028 146.591 73.6542 123.828 88.3172 126.051Z" fill="white"/>
<path fill-rule="evenodd" clip-rule="evenodd" d="M111.855 101.466C113.222 99.6356 116.11 99.0397 116.881 101.929C116.881 101.929 117.474 103.672 116.28 104.75C112.623 108.05 110.488 103.296 111.855 101.466Z" fill="white"/>
<path fill-rule="evenodd" clip-rule="evenodd" d="M119.487 103.451C120.786 101.712 123.53 101.146 124.263 103.891C124.263 103.891 124.825 105.548 123.691 106.571C120.217 109.706 118.189 105.19 119.487 103.451Z" fill="white"/>
<path d="M108.855 125.707C108.855 125.707 108.855 147.068 109.168 159.004C109.482 170.941 106.746 182.702 101.519 191.899C96.2917 201.097 97.0032 214.254 93.1501 215.232C62.6727 222.968 70.8782 128.301 82.1549 122.252C93.4316 116.203 97.1566 114.921 97.1566 114.921" fill="white"/>
<path fill-rule="evenodd" clip-rule="evenodd" d="M93.2244 131.7L90.5979 135.622C90.3801 135.947 90.5446 136.39 90.9219 136.495L94.4267 137.464C94.834 137.576 95.2193 137.225 95.1446 136.809L94.2663 131.918C94.1751 131.41 93.5117 131.271 93.2244 131.7ZM93.7952 132.304L94.5796 136.91L91.532 135.622L93.7952 132.304Z" fill="#FFB61D"/>
<path fill-rule="evenodd" clip-rule="evenodd" d="M84.7737 127.87L81.6784 132.838C81.4807 133.156 81.6343 133.574 81.9904 133.689L87.3948 135.421C87.8449 135.565 88.2667 135.134 88.1127 134.687L85.8035 127.986C85.6461 127.53 85.0292 127.46 84.7737 127.87ZM85.5077 128.476L87.089 134.687L82.4031 132.838L85.5077 128.476Z" fill="#FFB61D"/>
<path fill-rule="evenodd" clip-rule="evenodd" d="M82.8665 165.459L84.972 173.372C85.1013 173.858 85.7493 173.954 86.0145 173.527L89.1449 168.479C89.3184 168.2 89.2215 167.831 88.9326 167.673L83.6967 164.808C83.2541 164.566 82.7367 164.972 82.8665 165.459ZM83.4212 165.694L88.2744 168.177L85.5267 173.224L83.4212 165.694Z" fill="#FFB61D"/>
<path fill-rule="evenodd" clip-rule="evenodd" d="M78.6505 194.513L79.7985 199.937C79.9038 200.435 80.5565 200.56 80.8381 200.136L83.9395 195.47C84.1683 195.125 83.9692 194.659 83.5622 194.587L79.3128 193.829C78.9119 193.758 78.5662 194.115 78.6505 194.513ZM79.6521 194.428L83.3348 195.733L80.1571 199.362L79.6521 194.428Z" fill="#FFB61D"/>
<path fill-rule="evenodd" clip-rule="evenodd" d="M88.5997 193.365L89.7477 198.789C89.853 199.287 90.5057 199.412 90.7873 198.988L93.8887 194.322C94.1176 193.977 93.9184 193.511 93.5114 193.439L89.262 192.681C88.8611 192.61 88.5154 192.967 88.5997 193.365ZM89.1309 193.837L93.4184 193.719L89.8902 198.252L89.1309 193.837Z" fill="#FFB61D"/>
<path fill-rule="evenodd" clip-rule="evenodd" d="M83.2423 182.268L84.3903 187.692C84.4956 188.189 85.1483 188.314 85.4299 187.891L88.5313 183.224C88.7601 182.88 88.561 182.414 88.154 182.342L83.9046 181.584C83.5037 181.513 83.158 181.87 83.2423 182.268ZM83.8038 182.149L87.6706 183.289L84.5692 187.19L83.8038 182.149Z" fill="#FFB61D"/>
<path fill-rule="evenodd" clip-rule="evenodd" d="M210.31 199.819C210.021 200.382 209.548 200.617 208.917 200.652C206.67 200.777 204.889 199.786 203.3 198.342C202.697 197.794 202.163 197.171 201.559 196.626C201.134 196.241 200.679 195.991 200.016 196.229C199.509 196.411 198.913 196.342 198.358 196.399C197.107 196.527 195.858 196.693 194.604 196.785C193.805 196.843 193.785 197.525 193.598 197.995C193.173 199.059 192.856 200.168 192.519 201.265C192.387 201.691 192.179 201.86 191.7 201.854C189.31 201.825 186.919 201.827 184.529 201.846C183.44 201.855 182.351 201.986 181.264 201.961C179.219 201.915 177.171 201.849 175.133 201.693C173.16 201.541 171.199 201.257 169.231 201.047C167.848 200.899 166.457 200.821 165.081 200.634C163.48 200.417 161.893 200.1 160.295 199.855C159.496 199.732 158.684 199.696 157.884 199.578C156.512 199.376 155.14 199.166 153.777 198.912C152.512 198.677 151.322 198.921 150.131 199.314C147.813 200.08 145.489 200.827 143.164 201.571C142.751 201.703 142.628 201.812 142.815 202.314C143.5 204.157 144.141 206.02 144.699 207.905C145.092 209.235 145.365 210.605 145.617 211.971C145.926 213.645 146.185 215.33 146.416 217.017C146.592 218.306 146.704 219.604 146.819 220.9C146.966 222.548 147.106 224.196 147.217 225.846C147.327 227.489 147.42 229.135 147.482 230.78C147.588 233.575 147.667 236.371 147.751 239.166C147.802 240.859 147.834 242.552 147.89 244.245C147.906 244.736 148.064 245.24 147.989 245.712C147.932 246.068 147.68 246.565 147.39 246.677C146.642 246.965 146.427 247.521 146.433 248.286C146.441 249.264 146.564 250.242 146.539 251.218C146.522 251.839 146.76 252.273 147.212 252.603C149.266 254.101 151.34 255.571 153.393 257.071C154.367 257.782 155.328 258.515 156.262 259.279C157.262 260.096 158.242 260.941 159.195 261.813C160.145 262.682 160.651 263.744 160.811 265.069C160.935 266.096 160.804 267.05 160.632 268.028C160.543 268.536 160.253 268.745 159.723 268.572C157.5 267.847 155.281 267.107 153.047 266.416C149.357 265.274 145.656 264.165 141.96 263.043C140.642 262.643 139.325 262.243 138.006 261.849C137.198 261.607 137.027 260.882 136.877 260.226C136.451 258.361 137.001 256.663 137.985 255.099C138.587 254.141 139.289 253.247 139.947 252.325C140.485 251.572 140.346 250.801 140.08 249.986C139.213 247.334 138.362 244.677 137.542 242.01C136.734 239.377 135.932 236.741 135.2 234.086C134.426 231.28 133.723 228.455 133.015 225.631C132.632 224.103 132.271 222.569 131.96 221.025C131.728 219.87 131.597 218.696 131.415 217.531C131.197 216.14 131.066 214.725 130.708 213.37C130.554 212.787 129.988 212.254 129.495 211.831C128.421 210.911 127.187 210.226 125.846 209.758C125.515 209.642 125.156 209.562 124.806 209.549C123.143 209.486 121.478 209.47 119.815 209.403C118.191 209.337 116.567 209.247 114.945 209.138C113.272 209.025 111.6 208.89 109.93 208.74C108.143 208.58 106.349 208.452 104.574 208.196C102.693 207.924 100.829 207.529 98.9623 207.164C98.3551 207.045 97.9116 207.414 97.8175 208.27C97.6116 210.142 96.9757 211.881 96.2204 213.584C95.6756 214.812 94.6478 215.426 93.3799 215.636C92.4748 215.785 91.5476 215.928 90.6372 215.893C88.046 215.795 85.7351 214.941 83.6796 213.297C81.0725 211.213 79.5471 208.428 78.2484 205.458C77.6664 204.128 76.9172 202.858 76.4604 201.489C75.9643 200.001 75.7133 198.431 75.3678 196.894C75.0989 195.698 74.8246 194.502 74.5984 193.298C74.4196 192.346 74.307 191.38 74.1711 190.42C73.9906 189.144 73.8126 187.868 73.641 186.591C73.5842 186.169 73.5281 185.744 73.5103 185.319C73.4547 183.988 73.4274 182.656 73.371 181.325C73.2918 179.459 73.144 177.593 73.1193 175.727C73.0772 172.534 73.0815 169.339 73.1198 166.146C73.1366 164.744 73.2552 163.34 73.3812 161.942C73.5244 160.353 73.7416 158.771 73.8999 157.183C74.0129 156.049 74.0482 154.908 74.1782 153.776C74.3688 152.117 74.578 150.457 74.8434 148.808C75.1591 146.847 75.5201 144.892 75.9018 142.942C76.624 139.252 77.4643 135.585 78.8398 132.079C79.7162 129.845 80.6308 127.567 82.4197 125.881C83.1941 125.151 84.2701 124.73 85.2323 124.212C87.8731 122.79 90.5278 121.394 93.1695 119.974C93.293 119.908 93.3991 119.715 93.4193 119.568C93.4893 119.059 93.4582 118.529 93.5832 118.037C93.6647 117.716 93.8897 117.364 94.1554 117.171C95.0466 116.521 95.9803 115.928 96.9097 115.332C97.076 115.225 97.3115 115.132 97.4943 115.161C98.4741 115.32 98.9656 114.717 99.3015 113.975C99.7563 112.97 100.171 111.943 100.524 110.898C101.109 109.168 101.698 107.434 102.14 105.665C102.293 105.055 102.058 104.327 101.92 103.67C101.64 102.332 101.407 100.97 100.956 99.6879C100.667 98.8683 100.083 98.1248 99.5251 97.4331C98.0822 95.6447 97.3243 93.6417 97.5669 91.3467C97.6723 90.3502 98.0997 89.4216 98.8451 88.6975C99.7223 87.8455 100.622 87.0163 101.502 86.1671C102.143 85.5479 102.097 85.0746 101.262 84.4694C100.093 83.6223 98.9718 82.7071 97.8535 81.7927C96.8984 81.0118 96.4875 79.896 96.2345 78.7522C95.8904 77.1961 95.8491 75.6262 96.4837 74.1074C97.4988 71.6783 98.9615 69.6736 101.639 68.9178C103.999 68.2517 106.353 68.2968 108.471 69.6346C110.396 70.8501 111.618 72.6607 112.156 74.8952C112.787 77.5177 112.068 79.8776 110.743 82.1222C110.632 82.3102 110.621 82.5571 110.563 82.7766C110.76 82.8138 110.956 82.8755 111.154 82.8846C113.703 83.0007 116.237 83.2836 118.52 84.4986C121.516 86.0933 123.401 88.6208 124.232 91.9105C124.357 92.4029 124.356 92.9323 124.372 93.4458C124.428 95.1971 124.432 96.9509 124.536 98.6991C124.557 99.0641 124.837 99.512 125.135 99.7458C126.568 100.868 127.055 103.616 125.723 105.242C125.589 105.405 125.476 105.584 125.345 105.749C124.833 106.393 124.091 106.706 123.352 106.574C122.722 106.462 122.669 106.674 122.461 107.139C122.017 108.13 121.486 109.09 120.913 110.014C120.145 111.253 119.36 112.491 118.472 113.645C117.936 114.341 117.211 114.901 116.532 115.477C115.708 116.174 114.837 116.816 113.997 117.496C113.579 117.836 113.12 118.011 112.585 117.934C112.031 117.854 111.719 118.166 111.557 118.615C111.243 119.482 110.96 120.362 110.712 121.25C110.66 121.437 110.771 121.71 110.884 121.897C111.873 123.525 112.856 125.158 113.889 126.758C114.728 128.057 115.682 129.283 116.494 130.597C116.996 131.41 117.328 132.328 117.735 133.199C118.444 134.72 119.169 136.234 119.847 137.768C119.986 138.084 120.024 138.488 119.975 138.833C119.905 139.335 119.41 139.495 118.873 139.171C118.25 138.795 117.663 138.355 117.08 137.917C116.719 137.646 116.394 137.327 116.05 137.031C116.011 136.997 115.957 136.979 115.91 136.953C115.903 137.013 115.882 137.075 115.89 137.132C115.986 137.807 116.063 138.486 116.192 139.155C116.326 139.846 116.529 140.523 116.669 141.212C116.947 142.582 117.217 143.954 117.466 145.329C117.747 146.876 118.016 148.425 118.26 149.978C118.385 150.776 118.428 151.587 118.536 152.389C118.699 153.6 118.904 154.807 119.056 156.02C119.14 156.682 119.158 157.354 119.195 158.022C119.245 158.932 119.278 159.844 119.33 160.754C119.459 163 119.589 165.247 119.731 167.492C119.767 168.049 120.094 168.477 120.595 168.636C122.021 169.089 123.018 170.754 122.778 172.143C122.722 172.466 122.65 172.801 122.508 173.092C122.167 173.791 122.612 174.188 123.054 174.551C123.772 175.141 124.521 175.696 125.271 176.246C127.052 177.551 128.846 178.84 130.627 180.145C132.24 181.328 134.021 182.15 135.931 182.732C137.465 183.2 138.769 184.087 139.996 185.109C140.598 185.612 141.119 186.355 142.073 186.171C143.423 185.912 144.769 185.63 146.116 185.353C146.522 185.269 146.921 185.147 147.328 185.076C148.749 184.832 149.588 183.827 150.424 182.787C151.047 182.013 151.74 181.297 152.388 180.543C153.662 179.059 154.922 177.564 156.195 176.08C156.827 175.343 157.479 174.621 158.118 173.889C159.919 171.825 161.709 169.752 163.522 167.698C164.472 166.622 165.461 165.58 166.428 164.518C166.688 164.233 166.966 163.954 167.172 163.631C167.485 163.14 167.804 162.989 168.416 163.187C169.752 163.619 169.729 163.537 168.794 164.562C167.12 166.399 165.502 168.285 163.854 170.145C163.048 171.054 162.215 171.94 161.416 172.855C160.013 174.46 158.632 176.084 157.233 177.692C156.239 178.833 155.234 179.964 154.228 181.095C153.45 181.969 152.661 182.835 151.886 183.712C151.818 183.788 151.765 184 151.789 184.015C151.978 184.134 152.192 184.31 152.391 184.302C154.016 184.239 155.638 184.114 157.263 184.059C158.479 184.017 159.698 184.017 160.914 184.059C162.473 184.113 164.033 184.18 165.585 184.329C167.313 184.495 169.032 184.761 170.756 184.979C172.523 185.203 174.297 185.388 176.057 185.654C177.817 185.919 179.563 186.277 181.319 186.569C182.773 186.811 184.238 186.99 185.69 187.243C187.543 187.566 189.386 187.941 191.235 188.28C192.534 188.519 193.838 188.727 195.136 188.965C196.388 189.196 197.633 189.463 198.887 189.685C199.676 189.825 200.473 189.967 201.271 190C201.606 190.013 202.032 189.831 202.281 189.595C204.179 187.789 206.02 185.921 207.927 184.124C210.061 182.113 212.293 180.215 214.699 178.527C215.8 177.755 217.033 177.889 218.233 177.993C218.932 178.054 219.608 178.391 220.293 178.608C220.855 178.787 220.905 179.134 220.655 179.625C219.52 181.853 218.405 184.092 217.269 186.32C216.287 188.245 215.287 190.162 214.262 192.116C212.923 194.706 211.618 197.263 210.31 199.819ZM105.235 183.386C105.832 181.66 106.356 179.905 106.827 178.14C107.133 176.993 107.306 175.81 107.503 174.636C107.705 173.431 107.873 172.219 108.037 171.008C108.226 169.601 108.521 168.193 108.544 166.782C108.59 163.948 108.473 161.112 108.441 158.276C108.422 156.544 108.412 154.81 108.446 153.078C108.473 151.715 107.68 150.699 107.102 149.582C106.717 148.838 106.311 148.087 106.066 147.293C105.615 145.836 105.248 144.351 104.899 142.865C104.66 141.849 104.484 140.816 104.327 139.784C104.145 138.589 103.753 137.467 103.243 136.383C103.2 136.292 102.842 136.225 102.803 136.277C102.598 136.552 102.445 136.867 102.279 137.171C101.983 137.712 101.534 138.227 101.432 138.803C101.227 139.954 100.696 140.942 100.154 141.93C99.8162 142.545 99.2478 142.561 98.8529 141.997C98.4284 141.39 97.9699 140.778 97.6991 140.099C97.0622 138.504 96.492 136.879 95.9618 135.245C95.2649 133.097 94.6078 130.935 93.9822 128.765C93.6555 127.632 93.33 126.482 93.1928 125.317C93.0584 124.175 93.1648 123.005 93.1613 121.847C93.161 121.743 93.1293 121.64 93.1122 121.536C93.0653 121.573 93.0224 121.617 92.9708 121.646C91.7573 122.313 90.5513 122.995 89.3262 123.641C88.1111 124.281 86.8902 124.913 85.6469 125.496C84.2846 126.135 82.9173 126.794 82.1282 128.132C81.2745 129.579 80.2768 130.959 79.7625 132.591C79.2323 134.273 78.6326 135.936 78.1712 137.637C77.6991 139.376 77.3778 141.156 76.9523 142.909C76.6806 144.029 76.2329 145.115 76.0546 146.246C75.7826 147.972 75.6145 149.72 75.517 151.465C75.4334 152.963 75.4398 154.464 75.2376 155.956C75.0807 157.114 74.9741 158.279 74.8327 159.44C74.6175 161.207 74.2308 162.971 74.2031 164.74C74.1419 168.658 74.3032 172.578 74.2849 176.497C74.2754 178.551 74.5817 180.558 74.8236 182.582C75.0921 184.83 75.2512 187.09 75.5075 189.339C75.6817 190.868 75.8559 192.405 76.1819 193.906C76.7127 196.348 77.2829 198.789 77.9916 201.185C78.8759 204.174 80.1741 206.99 82.0021 209.544C83.1445 211.14 84.5389 212.447 86.2604 213.387C88.5942 214.66 91.0971 214.55 93.6047 214.161C94.016 214.098 94.5481 213.781 94.7242 213.431C95.2178 212.449 95.649 211.414 95.9301 210.353C96.3294 208.846 96.5059 207.28 96.8976 205.771C97.5435 203.282 98.3562 200.835 98.9649 198.338C99.4663 196.281 100.422 194.425 101.252 192.512C101.863 191.105 102.585 189.746 103.324 188.299C103.966 186.663 104.662 185.045 105.235 183.386ZM127.265 208.794C128.472 209.532 129.656 210.315 130.805 211.141C131.523 211.657 132.038 212.407 132.195 213.274C132.56 215.281 132.801 217.311 133.153 219.321C133.4 220.732 133.755 222.123 134.049 223.526C134.288 224.668 134.509 225.814 134.736 226.958C134.959 228.083 135.176 229.209 135.401 230.333C135.573 231.19 135.751 232.045 135.932 232.9C136.225 234.283 136.459 235.682 136.837 237.041C137.21 238.379 137.771 239.664 138.181 240.994C138.862 243.206 139.708 245.348 140.687 247.445C140.919 247.942 141.31 247.842 141.541 247.752C143.007 247.178 144.452 246.552 145.888 245.907C146.341 245.704 146.582 245.31 146.562 244.771C146.505 243.308 146.465 241.844 146.425 240.38C146.377 238.629 146.336 236.877 146.292 235.126C146.248 233.411 146.238 231.695 146.149 229.982C146.062 228.31 145.898 226.641 145.759 224.971C145.587 222.89 145.426 220.809 145.222 218.731C145.081 217.297 144.952 215.854 144.681 214.441C144.211 211.995 143.634 209.569 143.104 207.134C142.487 204.297 141.294 201.825 138.936 199.968C137.14 198.553 135.256 197.29 133.219 196.281C130.966 195.165 128.687 194.078 126.348 193.161C123.674 192.112 121.077 190.787 118.133 190.545C116.718 190.429 115.315 190.181 113.903 190.031C112.77 189.911 111.628 189.877 110.496 189.753C108.704 189.556 106.918 189.296 105.124 189.12C104.873 189.095 104.494 189.331 104.34 189.559C103.985 190.082 103.718 190.667 103.441 191.239C102.577 193.027 101.564 194.763 100.907 196.624C100.038 199.084 99.4478 201.642 98.743 204.159C98.3437 205.585 98.3352 205.649 99.5785 205.909C101.017 206.211 102.479 206.411 103.936 206.612C104.889 206.743 105.855 206.779 106.812 206.889C108.625 207.097 110.434 207.347 112.248 207.542C113.402 207.667 114.563 207.742 115.723 207.811C117.456 207.914 119.189 208.01 120.924 208.073C121.963 208.111 123.004 208.08 124.177 208.08C125.266 208.06 126.33 208.223 127.265 208.794ZM179.319 200.511C180.436 200.564 181.554 200.618 182.672 200.642C185.265 200.697 187.858 200.741 190.451 200.773C190.969 200.779 191.435 200.565 191.575 200.032C192.326 197.163 193.803 194.504 193.993 191.469C194.041 190.7 193.708 190.157 192.922 190.019C192.102 189.876 191.293 189.674 190.476 189.519C189.448 189.323 188.415 189.151 187.386 188.962C186.462 188.792 185.539 188.615 184.616 188.437C183.941 188.306 183.268 188.162 182.593 188.035C181.299 187.79 180.004 187.551 178.709 187.314C177.824 187.151 176.939 186.985 176.05 186.842C175.361 186.732 174.666 186.662 173.975 186.561C172.515 186.349 171.057 186.128 169.598 185.909C168.765 185.784 167.933 185.647 167.099 185.535C165.985 185.384 164.868 185.131 163.754 185.137C160.958 185.153 158.162 185.275 155.367 185.385C154.03 185.437 152.691 185.511 151.363 185.661C150.619 185.745 149.904 185.98 149.365 186.607C148.486 187.627 147.543 188.592 146.655 189.605C146.095 190.245 145.57 190.918 145.058 191.597C144.38 192.496 143.554 193.042 142.372 192.95C140.437 192.801 138.498 192.69 136.563 192.542C135.845 192.487 135.13 192.38 134.416 192.28C133.205 192.11 131.997 191.914 130.785 191.755C129.625 191.603 128.462 191.477 127.298 191.358C126.97 191.324 126.634 191.342 126.303 191.361C126.237 191.365 126.178 191.477 126.115 191.54C126.183 191.571 126.251 191.599 126.317 191.634C126.9 191.938 127.467 192.276 128.066 192.541C129.824 193.317 131.637 193.981 133.351 194.843C135.839 196.094 138.161 197.623 140.272 199.46C140.927 200.029 141.555 200.453 142.629 200.31C144.331 200.083 145.921 199.664 147.448 198.92C149.503 197.92 151.595 197.1 153.958 197.59C155.325 197.874 156.7 198.122 158.066 198.415C158.931 198.6 159.775 198.906 160.646 199.035C161.727 199.196 162.828 199.224 163.919 199.319C165.904 199.492 167.888 199.676 169.873 199.848C171.221 199.965 172.57 200.07 173.985 200.247C175.763 200.336 177.541 200.428 179.319 200.511ZM110.159 162.157C110.178 162.688 110.157 163.219 110.166 163.75C110.207 166.232 110.246 168.713 110.302 171.195C110.318 171.914 110.286 172.657 110.451 173.348C110.785 174.746 111.223 176.12 111.65 177.494C111.833 178.083 112.087 178.643 112.752 178.876C113.331 179.079 113.891 179.334 114.471 179.533C115.332 179.828 115.596 179.716 116.157 178.929C116.342 178.669 116.556 178.428 116.765 178.185C118.109 176.617 119.494 175.082 120.789 173.474C121.745 172.288 121.579 170.378 119.979 169.766C119.807 169.7 119.636 169.621 119.458 169.584C118.512 169.388 118.556 169.39 118.524 168.497C118.412 165.304 118.787 162.103 118.285 158.914C118.085 157.641 118.167 156.324 117.983 155.047C117.697 153.06 117.3 151.089 116.936 149.114C116.592 147.245 116.247 145.377 115.87 143.515C115.589 142.125 115.251 140.748 114.948 139.362C114.717 138.306 114.535 137.237 114.256 136.194C114.181 135.912 113.831 135.703 113.607 135.461C113.345 135.714 112.886 135.945 112.854 136.224C112.694 137.639 112.475 139.082 112.6 140.486C112.742 142.1 112.985 143.699 112.677 145.301C112.326 147.126 111.742 148.878 110.753 150.475C110.205 151.361 109.795 152.279 109.888 153.374C109.981 154.458 110.011 155.549 110.026 156.637C110.048 158.185 110.032 159.734 110.032 161.415C110.076 161.663 110.149 161.909 110.159 162.157ZM103.194 107.319C103.083 107.492 102.928 107.651 102.866 107.84C102.235 109.77 101.659 111.72 100.985 113.634C100.579 114.788 99.9415 115.817 98.8876 116.542C98.1218 117.069 97.4076 117.67 96.6583 118.221C96.2888 118.493 96.3668 118.728 96.5973 119.059C97.2868 120.047 98.0156 121.018 98.5911 122.072C99.3854 123.526 100.066 125.043 100.773 126.543C101.461 128.005 102.181 129.457 102.777 130.956C103.284 132.23 103.557 133.599 104.078 134.865C104.549 136.011 105.055 137.139 105.226 138.366C105.284 138.783 105.419 138.786 105.735 138.785C107.634 138.779 109.468 138.528 111.07 137.397C111.207 137.3 111.323 137.102 111.348 136.935C111.411 136.531 111.401 136.117 111.448 135.71C111.481 135.424 111.668 135.113 111.601 134.863C111.352 133.934 111.02 133.027 110.73 132.108C110.175 130.352 109.448 128.615 109.398 126.763C109.348 124.878 109.517 122.985 109.646 121.1C109.699 120.331 109.85 119.559 110.044 118.811C110.273 117.934 110.218 117.694 109.427 117.267C108.125 116.563 107.002 115.616 106.199 114.395C104.889 112.403 103.883 110.259 103.524 107.781C103.414 107.627 103.304 107.473 103.194 107.319ZM122.088 106.731C122.124 106.659 122.446 106.436 121.967 106.355C121.483 106.274 120.936 106.039 120.604 105.692C119.952 105.012 119.412 104.22 118.864 103.447C118.709 103.228 118.654 103.096 118.436 103.358C118.297 103.524 118.118 103.656 117.98 103.823C116.781 105.27 115.058 105.885 113.445 105.483C111.511 105 110.331 102.938 110.305 101.149C110.295 100.436 110.069 99.8382 109.499 99.428C108.551 98.7452 107.576 98.0993 106.602 97.4541C106.056 97.0929 105.536 97.211 105.396 97.7806C105.047 99.1908 104.613 100.604 104.491 102.04C104.341 103.816 104.412 105.61 104.837 107.382C105.551 110.368 106.479 113.206 108.916 115.31C110.487 116.667 112.427 116.972 114.298 116.151C116.152 115.337 117.291 113.832 118.399 112.265C119.33 110.948 120.259 109.63 121.255 108.245C121.537 107.743 121.829 107.245 122.088 106.731ZM202.376 195.418C203.664 197.057 205.162 198.426 207.212 199.088C208.478 199.496 208.942 199.424 209.643 198.088C211.073 195.363 212.486 192.629 213.894 189.893C214.457 188.801 214.977 187.686 215.541 186.594C216.642 184.46 217.758 182.334 218.874 180.208C219.078 179.82 218.884 179.469 218.584 179.429C217.543 179.29 216.443 178.993 215.476 179.636C214.201 180.484 212.917 181.338 211.744 182.317C209.965 183.802 208.251 185.369 206.563 186.959C205.797 187.68 205.151 188.53 204.47 189.338C203.933 189.977 203.243 190.515 203.038 191.387C202.849 192.194 202.662 193.001 202.475 193.941C202.254 194.423 202.007 194.949 202.376 195.418ZM158.509 266.671C158.813 266.695 159.398 266.557 159.4 266.475C159.44 265.332 159.656 264.121 158.63 263.229C157.297 262.069 156.006 260.856 154.616 259.77C152.373 258.016 150.065 256.346 147.782 254.643C146.967 254.034 146.156 253.388 145.118 253.23C144.189 253.087 143.242 253.069 142.31 252.944C141.524 252.839 140.988 253.18 140.511 253.746C139.353 255.119 138.511 256.645 138.192 258.427C137.943 259.824 138.392 260.594 139.52 260.926C141.667 261.558 143.799 262.242 145.942 262.888C147.477 263.351 149.027 263.769 150.56 264.242C152.795 264.932 155.02 265.653 157.382 266.361C157.757 266.471 158.128 266.641 158.509 266.671ZM113.418 180.596C111.936 180.009 110.462 179.4 108.975 178.822C108.536 178.651 108.163 178.601 108.018 179.277C107.861 180.011 107.525 180.706 107.283 181.424C106.746 183.015 106.206 184.607 105.697 186.207C105.603 186.503 105.46 186.919 106.044 186.975C106.806 187.049 107.562 187.176 108.325 187.231C109.814 187.339 111.304 187.446 112.796 187.495C115.012 187.568 117.229 187.594 119.446 187.633C120.154 187.646 120.862 187.633 121.57 187.637C121.743 187.638 121.925 187.625 122.085 187.675C124.005 188.275 125.917 188.897 127.839 189.491C129.771 190.088 131.707 190.675 133.771 190.56C134.488 190.52 134.619 190.385 134.356 189.726C134.212 189.366 134.012 189 133.747 188.722C132.454 187.367 130.876 186.421 129.186 185.643C127.841 185.023 126.525 184.332 125.012 184.176C124.303 184.103 123.589 184.001 122.901 183.823C121.808 183.54 120.724 183.212 119.655 182.848C118.319 182.393 117.002 181.882 115.544 181.396C114.835 181.13 114.122 180.874 113.418 180.596ZM96.7435 121.989C96.122 121.026 95.4679 120.084 94.8258 119.135C94.7364 119.002 94.6388 118.876 94.545 118.746C94.4829 118.964 94.3957 119.178 94.3636 119.4C94.2574 120.133 94.1976 120.873 94.0717 121.603C93.8224 123.046 93.6869 124.465 94.6226 125.748C94.6819 125.829 94.7284 125.927 94.7551 126.024C95.0992 127.274 95.4372 128.527 95.7803 129.778C95.8671 130.094 95.9578 130.411 96.0619 130.722C96.5094 132.062 97.0518 133.378 97.3891 134.745C97.7355 136.148 98.0008 137.559 98.7203 138.841C98.927 139.21 98.994 139.655 99.1466 140.056C99.1921 140.176 99.3421 140.369 99.3898 140.354C99.5418 140.307 99.7422 140.206 99.7933 140.075C100.387 138.55 100.674 136.883 101.801 135.602C102.758 134.514 102.559 133.402 101.972 132.241C101.743 131.787 101.601 131.289 101.396 130.822C100.953 129.811 100.529 128.79 100.033 127.806C99.6002 126.945 99.0757 126.131 98.5991 125.293C98.264 124.703 97.9413 124.106 97.5466 123.446C97.2809 122.959 97.0434 122.454 96.7435 121.989ZM132.619 182.918C130.68 181.665 128.713 180.448 126.833 179.109C125.259 177.988 123.801 176.707 122.272 175.522C121.859 175.202 121.385 175.096 120.963 175.578C120.28 176.359 119.583 177.128 118.901 177.91C118.393 178.492 117.905 179.092 117.395 179.674C116.998 180.128 117.039 180.372 117.622 180.546C119.493 181.106 121.379 181.621 123.244 182.198C125.792 182.987 128.336 183.788 130.86 184.646C131.667 184.921 132.379 185.475 133.186 185.754C134.005 186.037 134.881 186.184 135.744 186.305C136.741 186.444 137.75 186.499 138.756 186.562C138.917 186.572 139.087 186.428 139.252 186.356C139.154 186.219 139.08 186.054 138.954 185.951C137.359 184.646 135.455 183.972 133.474 183.254C133.188 183.145 132.871 183.081 132.619 182.918ZM107.363 147.95C107.61 148.886 108.196 149.34 109.098 149.425C109.877 149.498 110.106 149.071 110.296 148.502C110.568 147.687 110.837 146.87 111.093 146.05C111.66 144.227 111.578 142.39 111.239 140.537C111.128 139.933 111.154 139.303 111.127 138.685C111.123 138.595 111.168 138.503 111.191 138.412C111.1 138.438 111.005 138.457 110.918 138.493C110.371 138.719 109.845 139.032 109.276 139.16C108.211 139.4 107.125 139.558 106.041 139.696C105.623 139.75 105.375 139.793 105.508 140.306C105.633 140.789 105.684 141.292 105.783 141.783C105.998 142.841 106.224 143.897 106.446 145.086C106.755 146.04 107.108 146.982 107.363 147.95ZM118.714 137.963C118.817 138.051 118.932 138.125 119.041 138.205C119.04 138.057 119.081 137.893 119.032 137.763C118.744 136.998 118.476 136.222 118.125 135.486C117.376 133.915 116.688 132.3 115.774 130.828C114.875 129.38 113.664 128.13 112.709 126.713C112.025 125.698 111.541 124.548 110.957 123.465C110.867 123.298 110.719 123.163 110.598 123.013C110.542 123.189 110.434 123.366 110.439 123.541C110.466 124.672 110.481 125.807 110.576 126.934C110.641 127.702 110.77 128.477 110.977 129.22C111.206 130.044 111.622 130.818 111.837 131.644C112.088 132.612 112.547 133.224 113.484 133.741C115.038 134.598 116.642 135.489 117.735 137.12C118.061 137.402 118.385 137.685 118.714 137.963ZM111.795 100.45C111.286 101.193 112.231 103.794 112.745 103.988C116.345 105.343 117.371 103.024 117.418 102.388C117.512 101.125 117.668 99.8437 116.473 98.8194C113.323 98.1928 112.62 99.2499 111.795 100.45ZM125.578 101.502C125.094 100.297 124.362 99.5105 123.087 99.7856C122.437 99.926 121.864 100.442 121.265 100.804C119.98 101.581 119.812 102.006 120.261 103.385C120.711 104.764 121.76 105.554 123.094 105.823C124.199 106.045 124.988 105.36 125.572 104.329C125.719 103.387 125.961 102.456 125.578 101.502ZM120.811 99.9435C121.33 99.5745 121.893 99.0281 122.453 99.0079C123.421 98.9729 123.264 98.3814 123.159 97.9156C122.867 96.6141 122.486 95.3317 122.114 94.0495C121.859 93.1717 121.643 93.1213 121.025 93.7395C119.966 94.7986 118.893 95.8372 117.562 96.5683C117.146 96.797 117.089 97.3238 117.386 97.7388C117.497 97.8933 117.647 98.0258 117.73 98.1928C118.14 99.0154 118.511 99.8579 118.947 100.665C119.044 100.844 118.971 101.475 119.595 101.01C119.998 100.651 120.374 100.254 120.811 99.9435ZM198.972 195.18C199.876 195.012 200.844 194.78 200.984 193.578C201.007 193.376 201.099 193.183 201.145 192.983C201.43 191.74 201.107 191.342 199.863 191.209C198.692 191.083 197.529 190.873 196.365 190.686C195.742 190.585 195.627 190.702 195.558 191.335C195.463 192.213 195.326 193.089 195.162 193.957C195.018 194.717 195.231 195.319 195.9 195.468C196.925 195.38 197.965 195.367 198.972 195.18ZM144.734 251.738C144.861 251.732 145.075 251.482 145.08 251.339C145.111 250.389 145.089 249.438 145.099 248.488C145.105 247.953 144.696 247.936 144.402 248.029C143.763 248.233 143.155 248.537 142.537 248.808C142.091 249.004 141.59 249.163 141.644 249.806C141.682 250.26 141.682 250.725 141.787 251.164C141.961 251.893 142.59 251.546 143.104 251.692C143.648 251.714 144.193 251.762 144.734 251.738ZM109.358 174.51C109.32 174.402 109.162 174.336 109.06 174.251C108.985 174.358 108.856 174.459 108.845 174.572C108.783 175.254 108.73 175.939 108.709 176.624C108.688 177.293 109.162 177.727 109.843 177.665C109.958 177.655 110.163 177.451 110.148 177.37C110.047 176.826 109.899 176.291 109.7 175.687C109.589 175.294 109.494 174.895 109.358 174.51ZM146.779 187.052C146.853 186.906 147.008 186.5 146.557 186.584C145.87 186.713 145.194 186.908 144.519 187.092C144.395 187.126 144.294 187.242 144.183 187.32C144.312 187.381 144.439 187.489 144.571 187.494C145.122 187.514 145.674 187.502 146.292 187.436C146.461 187.311 146.694 187.22 146.779 187.052ZM95.4879 117.406C95.382 117.467 95.2762 117.529 95.1703 117.59C95.2536 117.683 95.3218 117.812 95.4258 117.855C95.4879 117.881 95.6241 117.792 95.6958 117.723C96.1046 117.327 96.506 116.923 96.9049 116.517C96.9848 116.436 97.0429 116.333 97.111 116.24C96.9767 116.266 96.808 116.25 96.714 116.326C96.3154 116.649 95.9389 116.999 95.4879 117.406Z" fill="#00160A"/>
<path fill-rule="evenodd" clip-rule="evenodd" d="M109.721 109.672C109.098 109.336 108.483 109.06 108.354 108.31C108.102 106.854 108.627 105.138 110.525 105.237C112.237 105.327 113.323 106.749 112.718 108.354C112.271 109.538 111.188 110.125 109.721 109.672Z" fill="#FFB61D"/>
<path fill-rule="evenodd" clip-rule="evenodd" d="M118.161 104.238C118.195 104.015 118.23 103.859 118.264 103.702C118.318 103.839 118.387 103.971 118.423 104.112C118.69 105.157 119.536 107.758 118.528 108.955C118.444 109.055 118.019 109.071 117.754 109.054C117.234 109.021 116.627 108.253 116.724 107.758C116.738 107.684 117.994 108.903 118.264 108.243C118.713 107.143 118.161 104.617 118.161 104.238Z" fill="#00160A"/>
<path fill-rule="evenodd" clip-rule="evenodd" d="M111.076 111.862C111.024 111.835 110.951 111.842 110.889 111.845C110.734 111.851 110.522 111.574 110.612 111.457C110.748 111.28 110.902 111.102 111.086 110.986C111.195 110.917 111.377 111.141 111.363 111.24C111.353 111.315 111.423 111.431 111.491 111.481C112.531 112.245 113.686 112.74 114.949 112.978C115.032 112.994 115.105 113.068 115.183 113.115C115.105 113.169 115.028 113.274 114.951 113.269C113.572 113.188 111.979 112.32 111.076 111.862Z" fill="#00160A"/>
<path fill-rule="evenodd" clip-rule="evenodd" d="M77.4981 171.686L76.189 177.277C76.0878 177.71 76.4946 178.088 76.9185 177.956L81.4629 176.541C81.8452 176.422 81.9913 175.958 81.746 175.642L78.5107 171.466C78.2148 171.084 77.6082 171.216 77.4981 171.686ZM78.0569 172.583L80.9096 175.993L76.7479 177.408L78.0569 172.583Z" fill="#FFB61D"/>
<path fill-rule="evenodd" clip-rule="evenodd" d="M81.5592 139.43C81.0807 139.387 80.7643 139.916 81.0283 140.317L84.3576 145.378C84.582 145.719 85.0808 145.724 85.3111 145.387L88.3754 140.899C88.6226 140.537 88.3892 140.043 87.9527 140.004L81.5592 139.43ZM82.0096 140.004L87.7336 141.116L84.3576 144.65L82.0096 140.004Z" fill="#FFB61D"/>
<path fill-rule="evenodd" clip-rule="evenodd" d="M102.658 178.131H97.9626C97.5733 178.131 97.297 178.51 97.4162 178.881L98.9936 183.784C99.1425 184.246 99.7634 184.326 100.024 183.916L103.143 179.013C103.386 178.631 103.111 178.131 102.658 178.131ZM102.276 179.088L99.9226 183.608L98.3453 178.705L102.276 179.088Z" fill="#FFB61D"/>
<path fill-rule="evenodd" clip-rule="evenodd" d="M87.272 204.698L87.0574 208.948C87.0349 209.393 87.5069 209.693 87.9006 209.484L93.3602 206.575C93.8227 206.329 93.7403 205.642 93.2326 205.512L87.9876 204.171C87.636 204.081 87.2903 204.335 87.272 204.698ZM87.687 205.103L92.7044 205.8L87.9006 208.64L87.687 205.103Z" fill="#FFB61D"/>
<path fill-rule="evenodd" clip-rule="evenodd" d="M80.033 152.495L75.8237 155.413C75.4675 155.66 75.5029 156.197 75.8885 156.395L80.8145 158.924C81.2263 159.135 81.7061 158.797 81.6457 158.338L80.9291 152.892C80.8731 152.466 80.3861 152.25 80.033 152.495ZM80.2021 153.509L81.0766 158.413L76.1507 155.884L80.2021 153.509Z" fill="#FFB61D"/>
<path fill-rule="evenodd" clip-rule="evenodd" d="M99.3471 164.992L96.7206 168.914C96.4944 169.252 96.6811 169.711 97.0787 169.795L100.15 170.444C100.529 170.525 100.877 170.213 100.84 169.827L100.395 165.256C100.343 164.72 99.6471 164.544 99.3471 164.992ZM100.062 165.778V169.977L97.4217 168.914L100.062 165.778Z" fill="#FFB61D"/>
<path fill-rule="evenodd" clip-rule="evenodd" d="M99.8443 146.518C100.609 146.019 101.279 146.137 100.733 147.235C100.733 147.235 96.7495 157.336 95.5592 157.455C94.4304 157.569 93.8855 156.109 92.3093 151.935L92.2424 151.757C92.2364 151.742 92.2312 151.726 92.2267 151.71L92.2183 151.677L92.208 151.658L92.1862 151.607L91.9977 151.098C91.7751 150.49 91.2147 149.487 90.9184 149.138C90.6026 148.767 91.3071 148.537 91.8275 148.537C92.7988 148.537 93.9873 148.809 95.8565 148.269C98.0456 147.637 98.7969 147.201 99.8443 146.518ZM98.15 151.707L98.0975 151.741C97.5417 152.083 96.9275 152.346 96.2562 152.53C95.4533 152.749 94.2885 152.776 93.5349 152.612L93.4088 152.582L93.4553 152.698C93.8806 153.758 94.2588 154.984 94.5883 155.607L94.7033 155.82C94.9099 156.191 95.0913 156.461 95.2381 156.623L95.2839 156.671L95.3409 156.602C95.5866 156.288 96.4611 155.106 97.0687 153.925L97.1322 153.801C97.3923 153.291 97.676 152.712 97.9832 152.063L98.15 151.707ZM99.7898 147.685L99.6974 147.737C98.8331 148.219 97.4036 149.017 96.1748 149.372C94.7039 149.797 93.457 149.948 92.4312 149.812L92.3683 149.803L92.4044 149.904C92.5023 150.179 92.9177 151.477 93.0648 151.677C93.6601 152.227 94.3901 152.279 95.2839 152.063L95.412 152.029C98.6124 151.411 99.7898 147.685 99.7898 147.685Z" fill="#FFB61D"/>
<path fill-rule="evenodd" clip-rule="evenodd" d="M212.18 182.997C212.308 182.903 212.487 182.93 212.581 183.058C213.244 183.956 214.366 184 215.857 183.172C215.996 183.095 216.17 183.145 216.247 183.284C216.324 183.423 216.274 183.597 216.136 183.674C214.42 184.627 212.984 184.57 212.119 183.398C212.025 183.271 212.053 183.091 212.18 182.997Z" fill="#E7EAEE"/>
<path fill-rule="evenodd" clip-rule="evenodd" d="M210.011 185.296C210.128 185.189 210.31 185.198 210.416 185.315C211.421 186.421 212.757 186.484 213.843 185.904C213.983 185.829 214.157 185.882 214.231 186.022C214.306 186.162 214.253 186.336 214.113 186.41C212.816 187.103 211.196 187.026 209.992 185.702C209.885 185.584 209.894 185.403 210.011 185.296Z" fill="#E7EAEE"/>
<path fill-rule="evenodd" clip-rule="evenodd" d="M207.661 187.573C207.776 187.465 207.958 187.47 208.066 187.586C209.035 188.614 211.004 189.118 212.351 188.404C212.491 188.329 212.665 188.383 212.739 188.523C212.813 188.663 212.76 188.837 212.62 188.911C211.025 189.756 208.782 189.183 207.648 187.979C207.54 187.864 207.545 187.682 207.661 187.573Z" fill="#E7EAEE"/>
<path fill-rule="evenodd" clip-rule="evenodd" d="M209.485 196.574C211.5 195.599 209.417 191.987 207.467 193.449C206.217 194.387 207.588 197.492 209.485 196.574Z" fill="#E7EAEE"/>
<path d="M9.384 359.24C8.54133 359.24 7.78133 359.093 7.104 358.8C6.432 358.507 5.87733 358.088 5.44 357.544C5.008 356.995 4.73333 356.344 4.616 355.592L6.616 355.288C6.78667 355.971 7.136 356.499 7.664 356.872C8.19733 357.245 8.81067 357.432 9.504 357.432C9.91467 357.432 10.3013 357.368 10.664 357.24C11.0267 357.112 11.32 356.925 11.544 356.68C11.7733 356.435 11.888 356.133 11.888 355.776C11.888 355.616 11.8613 355.469 11.808 355.336C11.7547 355.197 11.6747 355.075 11.568 354.968C11.4667 354.861 11.3333 354.765 11.168 354.68C11.008 354.589 10.8213 354.512 10.608 354.448L7.632 353.568C7.376 353.493 7.09867 353.395 6.8 353.272C6.50667 353.144 6.22667 352.971 5.96 352.752C5.69867 352.528 5.48267 352.245 5.312 351.904C5.14667 351.557 5.064 351.131 5.064 350.624C5.064 349.883 5.25067 349.261 5.624 348.76C6.00267 348.253 6.50933 347.875 7.144 347.624C7.784 347.373 8.49333 347.251 9.272 347.256C10.0613 347.261 10.7653 347.397 11.384 347.664C12.0027 347.925 12.52 348.307 12.936 348.808C13.352 349.309 13.6453 349.915 13.816 350.624L11.744 350.984C11.6587 350.579 11.4933 350.235 11.248 349.952C11.008 349.664 10.712 349.445 10.36 349.296C10.0133 349.147 9.64267 349.067 9.248 349.056C8.864 349.051 8.50667 349.109 8.176 349.232C7.85067 349.349 7.58667 349.52 7.384 349.744C7.18667 349.968 7.088 350.229 7.088 350.528C7.088 350.811 7.17333 351.043 7.344 351.224C7.51467 351.4 7.72533 351.541 7.976 351.648C8.232 351.749 8.49067 351.835 8.752 351.904L10.816 352.48C11.0987 352.555 11.416 352.656 11.768 352.784C12.12 352.912 12.4587 353.091 12.784 353.32C13.1093 353.549 13.376 353.851 13.584 354.224C13.7973 354.597 13.904 355.072 13.904 355.648C13.904 356.245 13.7787 356.771 13.528 357.224C13.2827 357.672 12.9493 358.045 12.528 358.344C12.1067 358.643 11.624 358.867 11.08 359.016C10.5413 359.165 9.976 359.24 9.384 359.24ZM19.5636 359.24C18.689 359.24 17.921 359.051 17.2596 358.672C16.5983 358.293 16.081 357.768 15.7076 357.096C15.3396 356.424 15.1556 355.651 15.1556 354.776C15.1556 353.832 15.337 353.013 15.6996 352.32C16.0623 351.621 16.5663 351.08 17.2116 350.696C17.857 350.312 18.6036 350.12 19.4516 350.12C20.3476 350.12 21.1076 350.331 21.7316 350.752C22.361 351.168 22.8276 351.757 23.1316 352.52C23.4356 353.283 23.5503 354.181 23.4756 355.216H21.5636V354.512C21.5583 353.573 21.393 352.888 21.0676 352.456C20.7423 352.024 20.2303 351.808 19.5316 351.808C18.7423 351.808 18.1556 352.053 17.7716 352.544C17.3876 353.029 17.1956 353.741 17.1956 354.68C17.1956 355.555 17.3876 356.232 17.7716 356.712C18.1556 357.192 18.7156 357.432 19.4516 357.432C19.9263 357.432 20.3343 357.328 20.6756 357.12C21.0223 356.907 21.289 356.6 21.4756 356.2L23.3796 356.776C23.049 357.555 22.537 358.16 21.8436 358.592C21.1556 359.024 20.3956 359.24 19.5636 359.24ZM16.5876 355.216V353.76H22.5316V355.216H16.5876ZM25.4206 359V347.24H27.3486V359H25.4206ZM33.673 359.24C32.7983 359.24 32.0303 359.051 31.369 358.672C30.7077 358.293 30.1903 357.768 29.817 357.096C29.449 356.424 29.265 355.651 29.265 354.776C29.265 353.832 29.4463 353.013 29.809 352.32C30.1717 351.621 30.6757 351.08 31.321 350.696C31.9663 350.312 32.713 350.12 33.561 350.12C34.457 350.12 35.217 350.331 35.841 350.752C36.4703 351.168 36.937 351.757 37.241 352.52C37.545 353.283 37.6597 354.181 37.585 355.216H35.673V354.512C35.6677 353.573 35.5023 352.888 35.177 352.456C34.8517 352.024 34.3397 351.808 33.641 351.808C32.8517 351.808 32.265 352.053 31.881 352.544C31.497 353.029 31.305 353.741 31.305 354.68C31.305 355.555 31.497 356.232 31.881 356.712C32.265 357.192 32.825 357.432 33.561 357.432C34.0357 357.432 34.4437 357.328 34.785 357.12C35.1317 356.907 35.3983 356.6 35.585 356.2L37.489 356.776C37.1583 357.555 36.6463 358.16 35.953 358.592C35.265 359.024 34.505 359.24 33.673 359.24ZM30.697 355.216V353.76H36.641V355.216H30.697ZM43.122 359.24C42.2313 359.24 41.4713 359.043 40.842 358.648C40.2127 358.248 39.73 357.704 39.394 357.016C39.0633 356.328 38.8953 355.549 38.89 354.68C38.8953 353.795 39.0687 353.011 39.41 352.328C39.7567 351.64 40.2473 351.101 40.882 350.712C41.5167 350.317 42.2713 350.12 43.146 350.12C44.1273 350.12 44.9567 350.368 45.634 350.864C46.3167 351.355 46.762 352.027 46.97 352.88L45.05 353.4C44.9007 352.936 44.6527 352.576 44.306 352.32C43.9593 352.059 43.5647 351.928 43.122 351.928C42.6207 351.928 42.2073 352.048 41.882 352.288C41.5567 352.523 41.3167 352.848 41.162 353.264C41.0073 353.68 40.93 354.152 40.93 354.68C40.93 355.501 41.114 356.165 41.482 356.672C41.85 357.179 42.3967 357.432 43.122 357.432C43.634 357.432 44.0367 357.315 44.33 357.08C44.6287 356.845 44.8527 356.507 45.002 356.064L46.97 356.504C46.7033 357.384 46.2367 358.061 45.57 358.536C44.9033 359.005 44.0873 359.24 43.122 359.24ZM53.6371 359C53.0665 359.107 52.5065 359.152 51.9571 359.136C51.4131 359.125 50.9251 359.027 50.4931 358.84C50.0611 358.648 49.7331 358.347 49.5091 357.936C49.3118 357.563 49.2078 357.181 49.1971 356.792C49.1865 356.403 49.1811 355.963 49.1811 355.472V347.96H51.1011V355.36C51.1011 355.707 51.1038 356.011 51.1091 356.272C51.1198 356.533 51.1758 356.747 51.2771 356.912C51.4691 357.232 51.7758 357.411 52.1971 357.448C52.6185 357.485 53.0985 357.464 53.6371 357.384V359ZM47.6131 351.872V350.36H53.6371V351.872H47.6131ZM61.1141 359.24C60.4901 359.24 59.9621 359.123 59.5301 358.888C59.0981 358.648 58.7701 358.331 58.5461 357.936C58.3275 357.541 58.2181 357.107 58.2181 356.632C58.2181 356.216 58.2875 355.843 58.4261 355.512C58.5648 355.176 58.7781 354.888 59.0661 354.648C59.3541 354.403 59.7275 354.203 60.1861 354.048C60.5328 353.936 60.9381 353.835 61.4021 353.744C61.8715 353.653 62.3781 353.571 62.9221 353.496C63.4715 353.416 64.0448 353.331 64.6421 353.24L63.9541 353.632C63.9595 353.035 63.8261 352.595 63.5541 352.312C63.2821 352.029 62.8235 351.888 62.1781 351.888C61.7888 351.888 61.4128 351.979 61.0501 352.16C60.6875 352.341 60.4341 352.653 60.2901 353.096L58.5301 352.544C58.7435 351.813 59.1488 351.227 59.7461 350.784C60.3488 350.341 61.1595 350.12 62.1781 350.12C62.9461 350.12 63.6208 350.245 64.2021 350.496C64.7888 350.747 65.2235 351.157 65.5061 351.728C65.6608 352.032 65.7541 352.344 65.7861 352.664C65.8181 352.979 65.8341 353.323 65.8341 353.696V359H64.1461V357.128L64.4261 357.432C64.0368 358.056 63.5808 358.515 63.0581 358.808C62.5408 359.096 61.8928 359.24 61.1141 359.24ZM61.4981 357.704C61.9355 357.704 62.3088 357.627 62.6181 357.472C62.9275 357.317 63.1728 357.128 63.3541 356.904C63.5408 356.68 63.6661 356.469 63.7301 356.272C63.8315 356.027 63.8875 355.747 63.8981 355.432C63.9141 355.112 63.9221 354.853 63.9221 354.656L64.5141 354.832C63.9328 354.923 63.4341 355.003 63.0181 355.072C62.6021 355.141 62.2448 355.208 61.9461 355.272C61.6475 355.331 61.3835 355.397 61.1541 355.472C60.9301 355.552 60.7408 355.645 60.5861 355.752C60.4315 355.859 60.3115 355.981 60.2261 356.12C60.1461 356.259 60.1061 356.421 60.1061 356.608C60.1061 356.821 60.1595 357.011 60.2661 357.176C60.3728 357.336 60.5275 357.464 60.7301 357.56C60.9381 357.656 61.1941 357.704 61.4981 357.704ZM74.872 359.24C73.9813 359.24 73.2213 359.043 72.592 358.648C71.9627 358.248 71.48 357.704 71.144 357.016C70.8133 356.328 70.6453 355.549 70.64 354.68C70.6453 353.795 70.8187 353.011 71.16 352.328C71.5067 351.64 71.9973 351.101 72.632 350.712C73.2667 350.317 74.0213 350.12 74.896 350.12C75.8773 350.12 76.7067 350.368 77.384 350.864C78.0667 351.355 78.512 352.027 78.72 352.88L76.8 353.4C76.6507 352.936 76.4027 352.576 76.056 352.32C75.7093 352.059 75.3147 351.928 74.872 351.928C74.3707 351.928 73.9573 352.048 73.632 352.288C73.3067 352.523 73.0667 352.848 72.912 353.264C72.7573 353.68 72.68 354.152 72.68 354.68C72.68 355.501 72.864 356.165 73.232 356.672C73.6 357.179 74.1467 357.432 74.872 357.432C75.384 357.432 75.7867 357.315 76.08 357.08C76.3787 356.845 76.6027 356.507 76.752 356.064L78.72 356.504C78.4533 357.384 77.9867 358.061 77.32 358.536C76.6533 359.005 75.8373 359.24 74.872 359.24ZM83.9048 359.24C83.0408 359.24 82.2861 359.045 81.6408 358.656C80.9954 358.267 80.4941 357.731 80.1368 357.048C79.7848 356.36 79.6088 355.571 79.6088 354.68C79.6088 353.773 79.7901 352.979 80.1528 352.296C80.5154 351.613 81.0194 351.08 81.6648 350.696C82.3101 350.312 83.0568 350.12 83.9048 350.12C84.7741 350.12 85.5314 350.315 86.1768 350.704C86.8221 351.093 87.3234 351.632 87.6808 352.32C88.0381 353.003 88.2168 353.789 88.2168 354.68C88.2168 355.576 88.0354 356.368 87.6728 357.056C87.3154 357.739 86.8141 358.275 86.1688 358.664C85.5234 359.048 84.7688 359.24 83.9048 359.24ZM83.9048 357.432C84.6728 357.432 85.2434 357.176 85.6168 356.664C85.9901 356.152 86.1768 355.491 86.1768 354.68C86.1768 353.843 85.9874 353.176 85.6088 352.68C85.2301 352.179 84.6621 351.928 83.9048 351.928C83.3874 351.928 82.9608 352.045 82.6248 352.28C82.2941 352.509 82.0488 352.832 81.8888 353.248C81.7288 353.659 81.6488 354.136 81.6488 354.68C81.6488 355.517 81.8381 356.187 82.2168 356.688C82.6008 357.184 83.1634 357.432 83.9048 357.432ZM95.9554 359V354.84C95.9554 354.568 95.9367 354.267 95.8994 353.936C95.862 353.605 95.774 353.288 95.6354 352.984C95.502 352.675 95.2994 352.421 95.0274 352.224C94.7607 352.027 94.398 351.928 93.9394 351.928C93.694 351.928 93.4514 351.968 93.2114 352.048C92.9714 352.128 92.7527 352.267 92.5554 352.464C92.3634 352.656 92.2087 352.923 92.0914 353.264C91.974 353.6 91.9154 354.032 91.9154 354.56L90.7714 354.072C90.7714 353.336 90.9127 352.669 91.1954 352.072C91.4834 351.475 91.9047 351 92.4594 350.648C93.014 350.291 93.6967 350.112 94.5074 350.112C95.1474 350.112 95.6754 350.219 96.0914 350.432C96.5074 350.645 96.838 350.917 97.0834 351.248C97.3287 351.579 97.51 351.931 97.6274 352.304C97.7447 352.677 97.8194 353.032 97.8514 353.368C97.8887 353.699 97.9074 353.968 97.9074 354.176V359H95.9554ZM89.9634 359V350.36H91.6834V353.04H91.9154V359H89.9634ZM102.331 359L99.195 350.36H101.123L103.299 356.624L105.467 350.36H107.403L104.267 359H102.331ZM112.454 359.24C111.58 359.24 110.812 359.051 110.15 358.672C109.489 358.293 108.972 357.768 108.598 357.096C108.23 356.424 108.046 355.651 108.046 354.776C108.046 353.832 108.228 353.013 108.59 352.32C108.953 351.621 109.457 351.08 110.102 350.696C110.748 350.312 111.494 350.12 112.342 350.12C113.238 350.12 113.998 350.331 114.622 350.752C115.252 351.168 115.718 351.757 116.022 352.52C116.326 353.283 116.441 354.181 116.366 355.216H114.454V354.512C114.449 353.573 114.284 352.888 113.958 352.456C113.633 352.024 113.121 351.808 112.422 351.808C111.633 351.808 111.046 352.053 110.662 352.544C110.278 353.029 110.086 353.741 110.086 354.68C110.086 355.555 110.278 356.232 110.662 356.712C111.046 357.192 111.606 357.432 112.342 357.432C112.817 357.432 113.225 357.328 113.566 357.12C113.913 356.907 114.18 356.6 114.366 356.2L116.27 356.776C115.94 357.555 115.428 358.16 114.734 358.592C114.046 359.024 113.286 359.24 112.454 359.24ZM109.478 355.216V353.76H115.422V355.216H109.478ZM118.151 359V350.36H119.855V352.464L119.647 352.192C119.754 351.904 119.895 351.643 120.071 351.408C120.253 351.168 120.469 350.971 120.719 350.816C120.933 350.672 121.167 350.56 121.423 350.48C121.685 350.395 121.951 350.344 122.223 350.328C122.495 350.307 122.759 350.317 123.015 350.36V352.16C122.759 352.085 122.463 352.061 122.127 352.088C121.797 352.115 121.498 352.208 121.231 352.368C120.965 352.512 120.746 352.696 120.575 352.92C120.41 353.144 120.287 353.4 120.207 353.688C120.127 353.971 120.087 354.277 120.087 354.608V359H118.151ZM127.565 359.24C126.499 359.24 125.632 359 124.965 358.52C124.299 358.04 123.893 357.365 123.749 356.496L125.717 356.192C125.819 356.619 126.043 356.955 126.389 357.2C126.736 357.445 127.173 357.568 127.701 357.568C128.165 357.568 128.523 357.477 128.773 357.296C129.029 357.109 129.157 356.856 129.157 356.536C129.157 356.339 129.109 356.181 129.013 356.064C128.923 355.941 128.72 355.824 128.405 355.712C128.091 355.6 127.608 355.459 126.957 355.288C126.232 355.096 125.656 354.891 125.229 354.672C124.803 354.448 124.496 354.184 124.309 353.88C124.123 353.576 124.029 353.208 124.029 352.776C124.029 352.237 124.171 351.768 124.453 351.368C124.736 350.968 125.131 350.661 125.637 350.448C126.144 350.229 126.741 350.12 127.429 350.12C128.101 350.12 128.696 350.224 129.213 350.432C129.736 350.64 130.157 350.936 130.477 351.32C130.797 351.704 130.995 352.155 131.069 352.672L129.101 353.024C129.053 352.656 128.885 352.365 128.597 352.152C128.315 351.939 127.936 351.819 127.461 351.792C127.008 351.765 126.643 351.835 126.365 352C126.088 352.16 125.949 352.387 125.949 352.68C125.949 352.845 126.005 352.987 126.117 353.104C126.229 353.221 126.453 353.339 126.789 353.456C127.131 353.573 127.637 353.717 128.309 353.888C128.997 354.064 129.547 354.267 129.957 354.496C130.373 354.72 130.672 354.989 130.853 355.304C131.04 355.619 131.133 356 131.133 356.448C131.133 357.317 130.816 358 130.181 358.496C129.552 358.992 128.68 359.24 127.565 359.24ZM135.302 359.24C134.678 359.24 134.15 359.123 133.718 358.888C133.286 358.648 132.958 358.331 132.734 357.936C132.515 357.541 132.406 357.107 132.406 356.632C132.406 356.216 132.475 355.843 132.614 355.512C132.752 355.176 132.966 354.888 133.254 354.648C133.542 354.403 133.915 354.203 134.374 354.048C134.72 353.936 135.126 353.835 135.59 353.744C136.059 353.653 136.566 353.571 137.11 353.496C137.659 353.416 138.232 353.331 138.83 353.24L138.142 353.632C138.147 353.035 138.014 352.595 137.742 352.312C137.47 352.029 137.011 351.888 136.366 351.888C135.976 351.888 135.6 351.979 135.238 352.16C134.875 352.341 134.622 352.653 134.478 353.096L132.718 352.544C132.931 351.813 133.336 351.227 133.934 350.784C134.536 350.341 135.347 350.12 136.366 350.12C137.134 350.12 137.808 350.245 138.39 350.496C138.976 350.747 139.411 351.157 139.694 351.728C139.848 352.032 139.942 352.344 139.974 352.664C140.006 352.979 140.022 353.323 140.022 353.696V359H138.334V357.128L138.614 357.432C138.224 358.056 137.768 358.515 137.246 358.808C136.728 359.096 136.08 359.24 135.302 359.24ZM135.686 357.704C136.123 357.704 136.496 357.627 136.806 357.472C137.115 357.317 137.36 357.128 137.542 356.904C137.728 356.68 137.854 356.469 137.918 356.272C138.019 356.027 138.075 355.747 138.086 355.432C138.102 355.112 138.11 354.853 138.11 354.656L138.702 354.832C138.12 354.923 137.622 355.003 137.206 355.072C136.79 355.141 136.432 355.208 136.134 355.272C135.835 355.331 135.571 355.397 135.342 355.472C135.118 355.552 134.928 355.645 134.774 355.752C134.619 355.859 134.499 355.981 134.414 356.12C134.334 356.259 134.294 356.421 134.294 356.608C134.294 356.821 134.347 357.011 134.454 357.176C134.56 357.336 134.715 357.464 134.918 357.56C135.126 357.656 135.382 357.704 135.686 357.704ZM147.168 359C146.598 359.107 146.038 359.152 145.488 359.136C144.944 359.125 144.456 359.027 144.024 358.84C143.592 358.648 143.264 358.347 143.04 357.936C142.843 357.563 142.739 357.181 142.728 356.792C142.718 356.403 142.712 355.963 142.712 355.472V347.96H144.632V355.36C144.632 355.707 144.635 356.011 144.64 356.272C144.651 356.533 144.707 356.747 144.808 356.912C145 357.232 145.307 357.411 145.728 357.448C146.15 357.485 146.63 357.464 147.168 357.384V359ZM141.144 351.872V350.36H147.168V351.872H141.144ZM149.186 349.048V347.28H151.114V349.048H149.186ZM149.186 359V350.36H151.114V359H149.186ZM157.327 359.24C156.463 359.24 155.708 359.045 155.063 358.656C154.417 358.267 153.916 357.731 153.559 357.048C153.207 356.36 153.031 355.571 153.031 354.68C153.031 353.773 153.212 352.979 153.575 352.296C153.937 351.613 154.441 351.08 155.087 350.696C155.732 350.312 156.479 350.12 157.327 350.12C158.196 350.12 158.953 350.315 159.599 350.704C160.244 351.093 160.745 351.632 161.103 352.32C161.46 353.003 161.639 353.789 161.639 354.68C161.639 355.576 161.457 356.368 161.095 357.056C160.737 357.739 160.236 358.275 159.591 358.664C158.945 359.048 158.191 359.24 157.327 359.24ZM157.327 357.432C158.095 357.432 158.665 357.176 159.039 356.664C159.412 356.152 159.599 355.491 159.599 354.68C159.599 353.843 159.409 353.176 159.031 352.68C158.652 352.179 158.084 351.928 157.327 351.928C156.809 351.928 156.383 352.045 156.047 352.28C155.716 352.509 155.471 352.832 155.311 353.248C155.151 353.659 155.071 354.136 155.071 354.68C155.071 355.517 155.26 356.187 155.639 356.688C156.023 357.184 156.585 357.432 157.327 357.432ZM169.377 359V354.84C169.377 354.568 169.359 354.267 169.321 353.936C169.284 353.605 169.196 353.288 169.057 352.984C168.924 352.675 168.721 352.421 168.449 352.224C168.183 352.027 167.82 351.928 167.361 351.928C167.116 351.928 166.873 351.968 166.633 352.048C166.393 352.128 166.175 352.267 165.977 352.464C165.785 352.656 165.631 352.923 165.513 353.264C165.396 353.6 165.337 354.032 165.337 354.56L164.193 354.072C164.193 353.336 164.335 352.669 164.617 352.072C164.905 351.475 165.327 351 165.881 350.648C166.436 350.291 167.119 350.112 167.929 350.112C168.569 350.112 169.097 350.219 169.513 350.432C169.929 350.645 170.26 350.917 170.505 351.248C170.751 351.579 170.932 351.931 171.049 352.304C171.167 352.677 171.241 353.032 171.273 353.368C171.311 353.699 171.329 353.968 171.329 354.176V359H169.377ZM163.385 359V350.36H165.105V353.04H165.337V359H163.385ZM180.436 359.24C179.572 359.24 178.817 359.045 178.172 358.656C177.527 358.267 177.025 357.731 176.668 357.048C176.316 356.36 176.14 355.571 176.14 354.68C176.14 353.773 176.321 352.979 176.684 352.296C177.047 351.613 177.551 351.08 178.196 350.696C178.841 350.312 179.588 350.12 180.436 350.12C181.305 350.12 182.063 350.315 182.708 350.704C183.353 351.093 183.855 351.632 184.212 352.32C184.569 353.003 184.748 353.789 184.748 354.68C184.748 355.576 184.567 356.368 184.204 357.056C183.847 357.739 183.345 358.275 182.7 358.664C182.055 359.048 181.3 359.24 180.436 359.24ZM180.436 357.432C181.204 357.432 181.775 357.176 182.148 356.664C182.521 356.152 182.708 355.491 182.708 354.68C182.708 353.843 182.519 353.176 182.14 352.68C181.761 352.179 181.193 351.928 180.436 351.928C179.919 351.928 179.492 352.045 179.156 352.28C178.825 352.509 178.58 352.832 178.42 353.248C178.26 353.659 178.18 354.136 178.18 354.68C178.18 355.517 178.369 356.187 178.748 356.688C179.132 357.184 179.695 357.432 180.436 357.432ZM186.511 359V350.36H188.215V352.464L188.007 352.192C188.113 351.904 188.255 351.643 188.431 351.408C188.612 351.168 188.828 350.971 189.079 350.816C189.292 350.672 189.527 350.56 189.783 350.48C190.044 350.395 190.311 350.344 190.583 350.328C190.855 350.307 191.119 350.317 191.375 350.36V352.16C191.119 352.085 190.823 352.061 190.487 352.088C190.156 352.115 189.857 352.208 189.591 352.368C189.324 352.512 189.105 352.696 188.935 352.92C188.769 353.144 188.647 353.4 188.567 353.688C188.487 353.971 188.447 354.277 188.447 354.608V359H186.511ZM199.44 359.24C198.374 359.24 197.507 359 196.84 358.52C196.174 358.04 195.768 357.365 195.624 356.496L197.592 356.192C197.694 356.619 197.918 356.955 198.264 357.2C198.611 357.445 199.048 357.568 199.576 357.568C200.04 357.568 200.398 357.477 200.648 357.296C200.904 357.109 201.032 356.856 201.032 356.536C201.032 356.339 200.984 356.181 200.888 356.064C200.798 355.941 200.595 355.824 200.28 355.712C199.966 355.6 199.483 355.459 198.832 355.288C198.107 355.096 197.531 354.891 197.104 354.672C196.678 354.448 196.371 354.184 196.184 353.88C195.998 353.576 195.904 353.208 195.904 352.776C195.904 352.237 196.046 351.768 196.328 351.368C196.611 350.968 197.006 350.661 197.512 350.448C198.019 350.229 198.616 350.12 199.304 350.12C199.976 350.12 200.571 350.224 201.088 350.432C201.611 350.64 202.032 350.936 202.352 351.32C202.672 351.704 202.87 352.155 202.944 352.672L200.976 353.024C200.928 352.656 200.76 352.365 200.472 352.152C200.19 351.939 199.811 351.819 199.336 351.792C198.883 351.765 198.518 351.835 198.24 352C197.963 352.16 197.824 352.387 197.824 352.68C197.824 352.845 197.88 352.987 197.992 353.104C198.104 353.221 198.328 353.339 198.664 353.456C199.006 353.573 199.512 353.717 200.184 353.888C200.872 354.064 201.422 354.267 201.832 354.496C202.248 354.72 202.547 354.989 202.728 355.304C202.915 355.619 203.008 356 203.008 356.448C203.008 357.317 202.691 358 202.056 358.496C201.427 358.992 200.555 359.24 199.44 359.24ZM209.825 359C209.254 359.107 208.694 359.152 208.145 359.136C207.601 359.125 207.113 359.027 206.681 358.84C206.249 358.648 205.921 358.347 205.697 357.936C205.499 357.563 205.395 357.181 205.385 356.792C205.374 356.403 205.369 355.963 205.369 355.472V347.96H207.289V355.36C207.289 355.707 207.291 356.011 207.297 356.272C207.307 356.533 207.363 356.747 207.465 356.912C207.657 357.232 207.963 357.411 208.385 357.448C208.806 357.485 209.286 357.464 209.825 357.384V359ZM203.801 351.872V350.36H209.825V351.872H203.801ZM214.099 359.24C213.475 359.24 212.947 359.123 212.515 358.888C212.083 358.648 211.755 358.331 211.531 357.936C211.312 357.541 211.203 357.107 211.203 356.632C211.203 356.216 211.272 355.843 211.411 355.512C211.549 355.176 211.763 354.888 212.051 354.648C212.339 354.403 212.712 354.203 213.171 354.048C213.517 353.936 213.923 353.835 214.387 353.744C214.856 353.653 215.363 353.571 215.907 353.496C216.456 353.416 217.029 353.331 217.627 353.24L216.939 353.632C216.944 353.035 216.811 352.595 216.539 352.312C216.267 352.029 215.808 351.888 215.163 351.888C214.773 351.888 214.397 351.979 214.035 352.16C213.672 352.341 213.419 352.653 213.275 353.096L211.515 352.544C211.728 351.813 212.133 351.227 212.731 350.784C213.333 350.341 214.144 350.12 215.163 350.12C215.931 350.12 216.605 350.245 217.187 350.496C217.773 350.747 218.208 351.157 218.491 351.728C218.645 352.032 218.739 352.344 218.771 352.664C218.803 352.979 218.819 353.323 218.819 353.696V359H217.131V357.128L217.411 357.432C217.021 358.056 216.565 358.515 216.043 358.808C215.525 359.096 214.877 359.24 214.099 359.24ZM214.483 357.704C214.92 357.704 215.293 357.627 215.603 357.472C215.912 357.317 216.157 357.128 216.339 356.904C216.525 356.68 216.651 356.469 216.715 356.272C216.816 356.027 216.872 355.747 216.883 355.432C216.899 355.112 216.907 354.853 216.907 354.656L217.499 354.832C216.917 354.923 216.419 355.003 216.003 355.072C215.587 355.141 215.229 355.208 214.931 355.272C214.632 355.331 214.368 355.397 214.139 355.472C213.915 355.552 213.725 355.645 213.571 355.752C213.416 355.859 213.296 355.981 213.211 356.12C213.131 356.259 213.091 356.421 213.091 356.608C213.091 356.821 213.144 357.011 213.251 357.176C213.357 357.336 213.512 357.464 213.715 357.56C213.923 357.656 214.179 357.704 214.483 357.704ZM220.901 359V350.36H222.605V352.464L222.397 352.192C222.504 351.904 222.645 351.643 222.821 351.408C223.003 351.168 223.219 350.971 223.469 350.816C223.683 350.672 223.917 350.56 224.173 350.48C224.435 350.395 224.701 350.344 224.973 350.328C225.245 350.307 225.509 350.317 225.765 350.36V352.16C225.509 352.085 225.213 352.061 224.877 352.088C224.547 352.115 224.248 352.208 223.981 352.368C223.715 352.512 223.496 352.696 223.325 352.92C223.16 353.144 223.037 353.4 222.957 353.688C222.877 353.971 222.837 354.277 222.837 354.608V359H220.901ZM232.356 359C231.785 359.107 231.225 359.152 230.676 359.136C230.132 359.125 229.644 359.027 229.212 358.84C228.78 358.648 228.452 358.347 228.228 357.936C228.031 357.563 227.927 357.181 227.916 356.792C227.905 356.403 227.9 355.963 227.9 355.472V347.96H229.82V355.36C229.82 355.707 229.823 356.011 229.828 356.272C229.839 356.533 229.895 356.747 229.996 356.912C230.188 357.232 230.495 357.411 230.916 357.448C231.337 357.485 231.817 357.464 232.356 357.384V359ZM226.332 351.872V350.36H232.356V351.872H226.332ZM239.833 359.24C239.209 359.24 238.681 359.123 238.249 358.888C237.817 358.648 237.489 358.331 237.265 357.936C237.046 357.541 236.937 357.107 236.937 356.632C236.937 356.216 237.006 355.843 237.145 355.512C237.284 355.176 237.497 354.888 237.785 354.648C238.073 354.403 238.446 354.203 238.905 354.048C239.252 353.936 239.657 353.835 240.121 353.744C240.59 353.653 241.097 353.571 241.641 353.496C242.19 353.416 242.764 353.331 243.361 353.24L242.673 353.632C242.678 353.035 242.545 352.595 242.273 352.312C242.001 352.029 241.542 351.888 240.897 351.888C240.508 351.888 240.132 351.979 239.769 352.16C239.406 352.341 239.153 352.653 239.009 353.096L237.249 352.544C237.462 351.813 237.868 351.227 238.465 350.784C239.068 350.341 239.878 350.12 240.897 350.12C241.665 350.12 242.34 350.245 242.921 350.496C243.508 350.747 243.942 351.157 244.225 351.728C244.38 352.032 244.473 352.344 244.505 352.664C244.537 352.979 244.553 353.323 244.553 353.696V359H242.865V357.128L243.145 357.432C242.756 358.056 242.3 358.515 241.777 358.808C241.26 359.096 240.612 359.24 239.833 359.24ZM240.217 357.704C240.654 357.704 241.028 357.627 241.337 357.472C241.646 357.317 241.892 357.128 242.073 356.904C242.26 356.68 242.385 356.469 242.449 356.272C242.55 356.027 242.606 355.747 242.617 355.432C242.633 355.112 242.641 354.853 242.641 354.656L243.233 354.832C242.652 354.923 242.153 355.003 241.737 355.072C241.321 355.141 240.964 355.208 240.665 355.272C240.366 355.331 240.102 355.397 239.873 355.472C239.649 355.552 239.46 355.645 239.305 355.752C239.15 355.859 239.03 355.981 238.945 356.12C238.865 356.259 238.825 356.421 238.825 356.608C238.825 356.821 238.878 357.011 238.985 357.176C239.092 357.336 239.246 357.464 239.449 357.56C239.657 357.656 239.913 357.704 240.217 357.704Z" fill="white"/>
<path d="M255.727 359V354.92C255.727 354.723 255.716 354.472 255.695 354.168C255.673 353.859 255.607 353.549 255.495 353.24C255.383 352.931 255.199 352.672 254.943 352.464C254.692 352.256 254.335 352.152 253.871 352.152C253.684 352.152 253.484 352.181 253.271 352.24C253.057 352.299 252.857 352.413 252.671 352.584C252.484 352.749 252.329 352.995 252.207 353.32C252.089 353.645 252.031 354.077 252.031 354.616L250.783 354.024C250.783 353.341 250.921 352.701 251.199 352.104C251.476 351.507 251.892 351.024 252.447 350.656C253.007 350.288 253.711 350.104 254.559 350.104C255.236 350.104 255.788 350.219 256.215 350.448C256.641 350.677 256.972 350.968 257.207 351.32C257.447 351.672 257.617 352.04 257.719 352.424C257.82 352.803 257.881 353.149 257.903 353.464C257.924 353.779 257.935 354.008 257.935 354.152V359H255.727ZM249.823 359V350.36H251.759V353.224H252.031V359H249.823ZM263.87 359.24C262.985 359.24 262.204 359.051 261.526 358.672C260.854 358.288 260.326 357.763 259.942 357.096C259.564 356.424 259.374 355.656 259.374 354.792C259.374 353.848 259.561 353.027 259.934 352.328C260.308 351.629 260.822 351.088 261.478 350.704C262.134 350.315 262.889 350.12 263.742 350.12C264.649 350.12 265.42 350.333 266.054 350.76C266.689 351.187 267.158 351.787 267.462 352.56C267.766 353.333 267.873 354.243 267.782 355.288H265.63V354.488C265.63 353.608 265.489 352.976 265.206 352.592C264.929 352.203 264.473 352.008 263.838 352.008C263.097 352.008 262.55 352.235 262.198 352.688C261.852 353.136 261.678 353.8 261.678 354.68C261.678 355.485 261.852 356.109 262.198 356.552C262.55 356.989 263.065 357.208 263.742 357.208C264.169 357.208 264.534 357.115 264.838 356.928C265.142 356.741 265.374 356.472 265.534 356.12L267.71 356.744C267.385 357.533 266.87 358.147 266.166 358.584C265.468 359.021 264.702 359.24 263.87 359.24ZM261.006 355.288V353.672H266.734V355.288H261.006ZM271.116 359L268.476 350.344L270.604 350.36L272.172 355.512L273.764 350.36H275.572L277.164 355.512L278.732 350.36H280.86L278.22 359H276.556L274.668 353.368L272.78 359H271.116ZM289.399 359.24C288.529 359.24 287.767 359.045 287.111 358.656C286.455 358.267 285.943 357.731 285.575 357.048C285.212 356.36 285.031 355.571 285.031 354.68C285.031 353.779 285.217 352.987 285.591 352.304C285.964 351.616 286.479 351.08 287.135 350.696C287.791 350.312 288.545 350.12 289.399 350.12C290.268 350.12 291.031 350.315 291.687 350.704C292.348 351.093 292.863 351.632 293.231 352.32C293.599 353.003 293.783 353.789 293.783 354.68C293.783 355.576 293.596 356.368 293.223 357.056C292.855 357.739 292.34 358.275 291.679 358.664C291.023 359.048 290.263 359.24 289.399 359.24ZM289.399 357.208C290.097 357.208 290.617 356.973 290.959 356.504C291.305 356.029 291.479 355.421 291.479 354.68C291.479 353.912 291.303 353.299 290.951 352.84C290.604 352.381 290.087 352.152 289.399 352.152C288.924 352.152 288.535 352.259 288.231 352.472C287.927 352.685 287.7 352.981 287.551 353.36C287.407 353.739 287.335 354.179 287.335 354.68C287.335 355.453 287.508 356.069 287.855 356.528C288.207 356.981 288.721 357.208 289.399 357.208ZM301.43 359V354.92C301.43 354.723 301.419 354.472 301.398 354.168C301.377 353.859 301.31 353.549 301.198 353.24C301.086 352.931 300.902 352.672 300.646 352.464C300.395 352.256 300.038 352.152 299.574 352.152C299.387 352.152 299.187 352.181 298.974 352.24C298.761 352.299 298.561 352.413 298.374 352.584C298.187 352.749 298.033 352.995 297.91 353.32C297.793 353.645 297.734 354.077 297.734 354.616L296.486 354.024C296.486 353.341 296.625 352.701 296.902 352.104C297.179 351.507 297.595 351.024 298.15 350.656C298.71 350.288 299.414 350.104 300.262 350.104C300.939 350.104 301.491 350.219 301.918 350.448C302.345 350.677 302.675 350.968 302.91 351.32C303.15 351.672 303.321 352.04 303.422 352.424C303.523 352.803 303.585 353.149 303.606 353.464C303.627 353.779 303.638 354.008 303.638 354.152V359H301.43ZM295.526 359V350.36H297.462V353.224H297.734V359H295.526ZM309.574 359.24C308.688 359.24 307.907 359.051 307.23 358.672C306.558 358.288 306.03 357.763 305.646 357.096C305.267 356.424 305.078 355.656 305.078 354.792C305.078 353.848 305.264 353.027 305.638 352.328C306.011 351.629 306.526 351.088 307.182 350.704C307.838 350.315 308.592 350.12 309.446 350.12C310.352 350.12 311.123 350.333 311.758 350.76C312.392 351.187 312.862 351.787 313.166 352.56C313.47 353.333 313.576 354.243 313.486 355.288H311.334V354.488C311.334 353.608 311.192 352.976 310.91 352.592C310.632 352.203 310.176 352.008 309.542 352.008C308.8 352.008 308.254 352.235 307.902 352.688C307.555 353.136 307.382 353.8 307.382 354.68C307.382 355.485 307.555 356.109 307.902 356.552C308.254 356.989 308.768 357.208 309.446 357.208C309.872 357.208 310.238 357.115 310.542 356.928C310.846 356.741 311.078 356.472 311.238 356.12L313.414 356.744C313.088 357.533 312.574 358.147 311.87 358.584C311.171 359.021 310.406 359.24 309.574 359.24ZM306.71 355.288V353.672H312.438V355.288H306.71Z" fill="#93C5FD"/>
<path d="M248.719 360H314.165V360.4H248.719V360Z" fill="#93C5FD"/>
</svg>
